<svg xmlns="http://www.w3.org/2000/svg" width="382" height="590" fill="none" viewBox="0 0 382 590"><g clip-path="url(#a)"><path fill="silver" stroke="#060606" stroke-width="1.5" d="M125.875 537.538c66.648 17.858 128.981 1.343 139.225-36.888s-35.48-83.701-102.128-101.559-128.982-1.343-139.225 36.888c-10.244 38.232 35.48 83.701 102.128 101.559Z"/><path fill="#fff" stroke="#060606" stroke-width="1.5" d="M265.101 500.649c-10.245 38.236-72.587 54.829-139.247 36.968-66.659-17.861-112.372-63.408-102.126-101.643l-5.184 19.345c-10.24 38.215 35.474 83.678 102.114 101.534s128.98 1.347 139.22-36.869l5.183-19.345z"/><path fill="#fff" d="M128.088 529.281c-61.884-16.582-104.908-57.418-95.9-91.04 9.01-33.622 66.688-47.475 128.572-30.893s104.928 57.423 95.919 91.045-66.687 47.475-128.591 30.888m32.109-119.834c-60.734-16.274-117.227-3.122-125.928 29.352-8.701 32.473 33.647 72.109 94.381 88.383s117.233 3.102 125.928-29.352c8.696-32.453-33.626-72.104-94.381-88.383M226.353 162.551c-61.884-16.582-104.903-57.438-95.894-91.06s66.687-47.475 128.571-30.893 104.928 57.423 95.919 91.045c-9.008 33.622-66.692 47.495-128.596 30.908m32.115-119.854c-60.735-16.274-117.233-3.102-125.928 29.352-8.696 32.453 33.641 72.129 94.375 88.403s117.249 3.042 125.934-29.372-33.627-72.104-94.381-88.383"/><path fill="#fff" d="m254.573 497.85.005-.02 2.101.563zM32.183 438.261l.005-.02 2.1.563z"/><path fill="#fff" d="m256.678 498.393-2.1-.563c8.701-32.473-33.627-72.105-94.381-88.384-60.755-16.279-117.227-3.121-125.928 29.352l-1.982-.531 17.206-64.214a100.4 100.4 0 0 1 26.963-46.195 100.5 100.5 0 0 1 46.87-25.808l35.075-8.28a17.849 17.849 0 0 0 13.023-22.209 17.86 17.86 0 0 0-4.901-8.106l-26.235-24.708a100.5 100.5 0 0 1-27.734-45.734 100.4 100.4 0 0 1-.331-53.467l17.509-65.343 2.219.595-.249.93c-4.757 31.939 37.009 69.149 95.109 84.717s112.894 4.231 124.744-25.807l.25-.931 2.219.595-17.509 65.343a100.4 100.4 0 0 1-26.973 46.184 100.5 100.5 0 0 1-46.874 25.794l-35.094 8.275a17.88 17.88 0 0 0-13.066 12.745 17.86 17.86 0 0 0 4.943 17.57l26.255 24.713c26.193 26.607 36.906 64.622 27.959 99.279zm-95.919-91.046c54.493 14.602 94.352 47.99 96.976 78.701l14.049-52.432c8.765-33.899-1.732-71.135-27.383-97.151l-26.22-24.682a20.039 20.039 0 0 1 9.115-34.018l35.094-8.275a98.27 98.27 0 0 0 45.834-25.21 98.17 98.17 0 0 0 26.389-45.145l15.068-56.234c-17.656 25.468-69.134 34.255-123.35 19.728s-94.383-47.87-96.959-78.76l-15.068 56.234a98.35 98.35 0 0 0 .281 52.33 98.45 98.45 0 0 0 27.087 44.796l26.255 24.713a20.06 20.06 0 0 1 5.488 9.098 20.04 20.04 0 0 1-5.301 19.785 20.07 20.07 0 0 1-9.302 5.135l-35.094 8.274a98.45 98.45 0 0 0-45.856 25.251 98.34 98.34 0 0 0-26.408 45.178l-14.029 52.354c17.628-25.285 68.861-34.266 123.334-19.67"/><path fill="#fff" d="M183.385 360.715a19.68 19.68 0 0 0-18.884-5.06c-28.793 7.586-105.35 29.835-111.829 54.012-7.995 29.84 30.403 66.063 85.788 80.903s106.77 2.675 114.765-27.165c6.479-24.176-48.698-81.724-69.84-102.69"/><path fill="#b0f127" stroke="#060606" stroke-width="1.5" d="M183.385 360.715a19.68 19.68 0 0 0-18.884-5.06c-28.793 7.586-105.35 29.835-111.829 54.012-7.995 29.84 30.403 66.063 85.788 80.903s106.77 2.675 114.765-27.165c6.479-24.176-48.698-81.724-69.84-102.69Z"/><path fill="#71a407" stroke="#060606" stroke-width="1.5" d="M138.461 490.571c-55.385-14.841-93.784-51.063-85.788-80.903l-7.338 27.384c-7.995 29.84 30.423 66.068 85.788 80.903s106.77 2.675 114.765-27.164l7.338-27.385c-7.995 29.84-59.381 42.005-114.765 27.165Z"/><path fill="#fff" d="m141.425 78.44-15.917 59.403a89.7 89.7 0 0 0 .258 47.713 89.8 89.8 0 0 0 24.69 40.848l23.758 22.304c.352.349.705.698 1.012 1.056a60 60 0 0 0 2.524 2.629 40.8 40.8 0 0 1 9.746 17.968 40.75 40.75 0 0 1-.199 20.434l-6.898 25.741a4.66 4.66 0 0 0 1.633 4.921 4.7 4.7 0 0 0 1.631.814 4.7 4.7 0 0 0 5.713-3.329l6.897-25.741a40.8 40.8 0 0 1 10.039-17.792 40.83 40.83 0 0 1 17.41-10.698c1.184-.298 2.3-.657 3.52-1.009.445-.157.925-.283 1.405-.409l31.726-7.437a89.8 89.8 0 0 0 41.807-23.03 89.7 89.7 0 0 0 24.08-41.192l15.916-59.402zM184.331 337.369a4.65 4.65 0 0 0-1.681-4.886 4.66 4.66 0 0 0-7.002 1.648 4.65 4.65 0 0 0 .681 5.122 4.659 4.659 0 0 0 8.002-1.884"/><path fill="#b0f127" stroke="#060606" stroke-width="1.5" d="m141.425 78.44-15.917 59.403a89.7 89.7 0 0 0 .258 47.713 89.8 89.8 0 0 0 24.69 40.848l23.758 22.304c.352.349.705.698 1.012 1.056a60 60 0 0 0 2.524 2.629 40.8 40.8 0 0 1 9.746 17.968 40.75 40.75 0 0 1-.199 20.434l-6.898 25.741a4.66 4.66 0 0 0 1.633 4.921 4.7 4.7 0 0 0 1.631.814 4.7 4.7 0 0 0 5.713-3.329l6.897-25.741a40.8 40.8 0 0 1 10.039-17.792 40.83 40.83 0 0 1 17.41-10.698c1.184-.298 2.3-.657 3.52-1.009.445-.157.925-.283 1.405-.409l31.726-7.437a89.8 89.8 0 0 0 41.807-23.03 89.7 89.7 0 0 0 24.08-41.192l15.916-59.402z"/><path fill="#b0f127" d="M184.331 337.369a4.65 4.65 0 0 0-1.681-4.886 4.66 4.66 0 0 0-7.002 1.648 4.65 4.65 0 0 0 .681 5.122 4.659 4.659 0 0 0 8.002-1.884"/><path fill="#fff" d="M227.212 159.343c55.387 14.841 106.769 2.679 114.766-27.165S311.557 66.111 256.17 51.27c-55.386-14.84-106.769-2.679-114.765 27.165-7.997 29.843 30.421 66.067 85.807 80.908"/><path fill="#fff" d="m183.678 300.69-23.918 11.269c-24.282 11.363-45.217 40.665-54.719 76.128L74.767 501.07a136.5 136.5 0 0 1-15.62-12.25l28.258-105.459c9.502-35.463 32.319-64.26 59.376-74.88l26.712-10.52c11.135-4.381 16.08-22.835 8.617-32.157l-17.873-22.467c-18.044-22.704-23.479-59.092-14.003-94.457l17.233-64.313 17.636 4.726-17.233 64.313c-9.502 35.463-5.93 71.352 9.319 93.308l15.079 21.718c6.301 8.904 1.356 27.359-8.59 32.058" opacity=".5"/><path fill="#fff" stroke="#060606" stroke-width="1.5" d="M224.145 170.787c66.648 17.858 128.982 1.343 139.226-36.888S327.89 50.199 261.242 32.34s-128.981-1.343-139.225 36.888c-10.244 38.232 35.48 83.701 102.128 101.559Z"/><path fill="silver" stroke="#060606" stroke-width="1.5" d="M363.37 133.899c-10.245 38.236-72.586 54.829-139.246 36.968S111.752 107.459 121.997 69.224l-5.183 19.345c-10.246 38.235 35.447 83.777 102.087 101.633s128.98 1.347 139.246-36.968l5.184-19.345z"/></g><defs><clipPath id="a"><path fill="#fff" d="m140.546 0 241.373 64.676-140.545 524.523L0 524.523z"/></clipPath></defs></svg>
