<svg xmlns="http://www.w3.org/2000/svg" viewBox="0 0 24 24" fill="#FF9900"><path d="M13.958 10.09c0 1.232.029 2.256-.591 3.351-.502.891-1.301 1.438-2.186 1.438-1.214 0-1.922-.924-1.922-2.292 0-2.692 2.415-3.182 4.699-3.182v.685zm3.186 7.705c-.209.189-.512.201-.745.074-1.052-.872-1.238-1.276-1.814-2.106-1.733 1.767-2.96 2.294-5.207 2.294-2.66 0-4.731-1.641-4.731-4.925 0-2.565 1.391-4.309 3.371-5.164 1.716-.756 4.115-.891 5.95-1.099v-.41c0-.753.06-1.642-.383-2.294-.385-.579-1.124-.818-1.775-.818-1.206 0-2.277.618-2.54 1.897-.054.285-.261.567-.549.582l-3.061-.333c-.259-.056-.548-.266-.472-.66C5.56 1.946 8.516 1 11.16 1c1.354 0 3.123.36 4.193 1.389C16.698 3.61 16.6 5.237 16.6 7.015v4.797c0 1.443.599 2.077 1.163 2.856.2.28.243.614-.01.823l-2.609 2.304zm4.1 1.893C19.088 21.5 16.107 23 12.787 23 8.251 23 4.2 21.358 1.1 18.513c-.26-.235-.028-.557.285-.374 3.354 1.952 7.493 3.128 11.77 3.128 2.888 0 6.063-.598 8.983-1.839.44-.19.808.288.406.66z"/></svg>
