<svg xmlns="http://www.w3.org/2000/svg" viewBox="0 0 24 24" fill="#107C10"><path d="M4.102 5.234C2.267 7.113 1.3 9.407 1.3 12c0 2.553.974 5.024 2.793 6.902C5.5 15.302 7.44 12.31 9.577 10.27c-1.494-1.69-3.603-3.615-5.475-5.036zm-.261-.328C5.364 3.296 8.615 1.5 12 1.5c3.386 0 6.636 1.796 8.16 3.406-1.895-1.437-3.974-1.79-5.43-.7-.795.594-2.225 1.884-2.73 2.536-.505-.652-1.935-1.942-2.73-2.536-1.456-1.09-3.535-.737-5.43.7zm8.159 6.218c-2.15 2.179-4.167 5.292-5.354 8.482C8.04 21.12 9.99 22.5 12 22.5c2.01 0 3.96-1.38 5.354-2.894-1.187-3.19-3.204-6.303-5.354-8.482zm3.898-1.18c2.137 2.04 4.077 5.032 5.48 8.634C23.026 17.024 24 14.553 24 12c0-2.593-.967-4.887-2.802-6.766-1.872 1.42-3.981 3.346-5.475 5.036l.175.654z"/></svg>
