<svg id="SvgjsSvg1001" width="288" height="288" xmlns="http://www.w3.org/2000/svg" version="1.1" xmlns:xlink="http://www.w3.org/1999/xlink" xmlns:svgjs="http://svgjs.com/svgjs"><defs id="SvgjsDefs1002"></defs><g id="SvgjsG1008"><svg xmlns="http://www.w3.org/2000/svg" viewBox="0 0 654 715" width="288" height="288"><path fill="#18181A" stroke="#18181A" d="M230.623 345.177C199.124 314.229 192.333 274.183 192.875 258.028L192.839 134.433L183.134 105.357L192.828 95.8911C203.762 97.6292 232.191 100.143 258.431 96.2908C284.672 92.4391 317.468 76.0353 330.587 68.3148C336.603 76.709 355.197 97.5491 381.443 113.756C407.689 129.962 444.869 146.458 460.179 152.68L460.214 273.029C460.219 289.744 460.23 326.518 453.674 343.193C440.311 377.184 367.317 412.313 327.415 436.028C308.275 418.639 262.122 376.124 230.623 345.177Z" class="svgShape color18181a-0 svgStroke colorStroke18181a-0 selectable"></path><path fill="#b0f127" stroke="#18181A" d="M183.33 267.776L183.282 105.639C194.119 107.377 222.294 109.888 248.3 106.035C274.306 102.182 306.81 85.7765 319.811 78.0553C325.773 86.4492 344.201 107.288 370.213 123.493C396.225 139.698 433.073 156.192 448.246 162.413L448.281 282.763C448.286 299.478 448.297 336.251 441.8 352.927C428.557 386.918 356.214 422.051 316.668 445.769C297.7 428.381 251.958 385.869 220.74 354.923C189.523 323.977 182.792 283.931 183.33 267.776Z" class="svgShape colora2ff69-1 svgStroke colorStroke18181a-1 selectable"></path><path fill="#18181A" d="M249.84 322.154C228.182 300.685 223.513 272.902 223.885 261.695L223.857 166.415L216.289 153.404L223.852 149.21C231.371 150.415 250.918 152.158 268.96 149.485C287.002 146.811 309.552 135.43 318.572 130.073C322.708 135.896 335.493 150.354 353.539 161.596C371.585 172.839 397.149 184.282 407.676 188.598L407.7 272.092C407.704 283.688 407.711 309.201 403.204 320.769C394.016 344.352 343.827 368.726 316.391 385.18C303.232 373.117 271.498 343.624 249.84 322.154Z" class="svgShape color18181a-2 selectable"></path><path stroke="#18181A" d="M223.852 149.21C231.371 150.415 250.918 152.158 268.96 149.485C287.002 146.811 309.552 135.43 318.572 130.073C322.708 135.896 335.493 150.354 353.539 161.596C371.585 172.839 397.149 184.282 407.676 188.598L407.7 272.092C407.704 283.688 407.711 309.201 403.204 320.769C394.016 344.352 343.827 368.726 316.391 385.18C303.232 373.117 271.498 343.624 249.84 322.154C228.182 300.685 223.513 272.902 223.885 261.695L223.857 166.415M223.852 149.21L216.289 153.404L223.857 166.415M223.852 149.21L223.857 166.415" fill="none" class="svgStroke colorStroke18181a-3 selectable"></path><path fill="#b0f127" stroke="#18181A" d="M216.129 266.292L216.096 153.807C223.614 155.012 243.161 156.755 261.203 154.081C279.245 151.408 301.795 140.027 310.815 134.67C314.952 140.493 327.736 154.951 345.783 166.193C363.829 177.436 389.393 188.879 399.919 193.195L399.944 276.689C399.947 288.285 399.955 313.797 395.447 325.366C386.259 348.949 336.07 373.323 308.635 389.777C295.475 377.714 263.741 348.22 242.083 326.751C220.426 305.282 215.756 277.499 216.129 266.292Z" class="svgShape colora2ff69-4 svgStroke colorStroke18181a-4 selectable"></path><path stroke="#18181A" stroke-width="9" d="M283.123 239.965V219.465C283.29 214.632 285.623 199.371 300.123 198.465C318.623 197.309 322.623 216.965 322.623 225.465V247.965" fill="none" class="svgStroke colorStroke18181a-5 selectable"></path><path fill="#18181A" stroke="#18181A" stroke-linecap="round" d="M339.929 251.37L273.09 236.466C271.512 236.115 269.86 236.414 268.506 237.297L263.862 240.326C261.201 242.061 260.354 245.57 261.93 248.328L264.332 252.533C264.85 253.439 265.123 254.465 265.123 255.51V265.416V291.593C265.123 294.41 267.082 296.848 269.833 297.453L325.734 309.758C327.266 310.095 328.604 311.019 329.463 312.33L329.942 313.061C331.716 315.768 335.316 316.581 338.081 314.898L341.743 312.669C343.531 311.581 344.623 309.638 344.623 307.544V257.226C344.623 254.415 342.672 251.981 339.929 251.37Z" class="svgShape color18181a-6 svgStroke colorStroke18181a-6 selectable"></path><path fill="#fff" stroke="#18181A" stroke-linecap="round" d="M334.948 255.358L267.448 240.075C263.695 239.225 260.123 242.078 260.123 245.927V295.593C260.123 298.41 262.082 300.848 264.833 301.453L332.333 316.312C336.077 317.136 339.623 314.285 339.623 310.452V261.21C339.623 258.406 337.682 255.977 334.948 255.358Z" class="svgShape colorffffff-7 svgStroke colorStroke18181a-7 selectable"></path><path fill="#18181A" d="M294.184 287.003L294.352 275.04L300.576 274.416L300.375 288.64C300.363 289.553 299.11 291.139 296.965 291.034C294.447 290.91 294.254 288.164 294.184 287.003Z" class="svgShape color18181a-8 selectable"></path><ellipse cx="5.503" cy="7.335" fill="#18181A" rx="5.503" ry="7.335" transform="matrix(.73675 -.75052 .77265 .53784 288.063 272.819)" class="svgShape color18181a-9 selectable"></ellipse></svg></g></svg>