<svg xmlns="http://www.w3.org/2000/svg" xmlns:xlink="http://www.w3.org/1999/xlink" viewBox="0 0 288 288"><svg xmlns="http://www.w3.org/2000/svg" xmlns:xlink="http://www.w3.org/1999/xlink" viewBox="0 0 818 718"><path fill="#fff" fill-rule="evenodd" d="M386 17v244c0 10 7 23 16 29l351 202v9q1 6 5 3l7-3q4-4 5-9V239c0-11-8-24-17-29L402 7l-2-1-1-1h-10l-6 4q-4 3 0 6z" class="svgShape colorffffff-0 selectable"/><mask id="a" width="390" height="501" x="380" y="4" maskUnits="userSpaceOnUse"><path fill="#d9d9d9" fill-rule="evenodd" d="M386 17v244c0 10 7 23 16 29l351 202v9q1 6 5 3l7-3q4-4 5-9V239c0-11-8-24-17-29L402 7l-2-1-1-1h-10l-6 4q-4 3 0 6z" class="svgShape colord9d9d9-2 selectable"/></mask><g mask="url(#a)"><rect width="28" height="281" fill="silver" class="svgShape colorc0c0c0-4 selectable" rx="6" transform="matrix(-.86603 .5 0 1 778 212)"/></g><mask id="b" fill="#fff" class="svgShape colorffffff-5"><path fill-rule="evenodd" d="M385 359c-11-6-29-6-40 0l-164 95-4 2-37-21q-3-1-4 3v8q1 5 4 8l39 22 2 1 309 179c11 6 29 6 40 0l164-95 3-1 50-29q5-4 5-9v-2q0-5-5-3l-46 27-7-6z" class="selectable"/></mask><g fill="#fff"><path fill-rule="evenodd" d="M385 359c-11-6-29-6-40 0l-164 95-4 2-37-21q-3-1-4 3v8q1 5 4 8l39 22 2 1 309 179c11 6 29 6 40 0l164-95 3-1 50-29q5-4 5-9v-2q0-5-5-3l-46 27-7-6z" class="svgShape colorffffff-8 selectable"/><path d="m345 359-1-1zm40 0 1-1zm-204 95-1-2zm-4 2 1 2-1 1-1-1zm-37-21-1 2zm0 19-1 1zm39 22 1-2v1zm2 1v-1zm309 179-1 1zm40 0v-2zm164-95 1 2zm3-1-1-2zm50-29 1 1zm5-9h2zm0-2h-2zm-5-3-1-1zm-46 27 1 1-2 1v-1zm-7-6v1zM344 358q9-5 21-5c12 0 15 1 21 5l-2 3q-8-5-19-5c-11 0-14 2-20 5zm-164 94 164-94 1 3-164 94zm-4 3 4-3 1 3-3 3zm0 3-37-21 2-3 37 21zm-37-21zv2h-4l2-4h5zm-1 1v8h-4v-8zm0 8 1 4 2 2-2 3-3-4-2-5zm3 6 39 22-2 3-39-22zm39 27-2-2 2-2 1 1zm309 178L180 479l1-3 310 178zm42 0q-9 5-21 5c-12 0-15-1-21-5l2-3q8 5 19 5c11 0 14-2 20-5zm164-94-164 94-1-3 164-94zm3-2-3 2-1-3 2-2zm50-29-51 29-1-3 50-29zm6-10-2 6-4 4-2-3 3-3 1-4zm0-2v2h-4v-2zm-8-4q3-2 5-1 3 2 3 5h-4v-2l-2 1zm-46 26 46-26 2 3-46 26zm-5-6q5 3 7 7l-2 2-6-6zM386 358l309 178-1 3-310-178z" class="svgShape colorffffff-9 selectable" mask="url(#b)"/></g><mask id="d" width="604" height="307" x="148" y="354" maskUnits="userSpaceOnUse"><mask id="c" fill="#fff" class="svgShape colorffffff-11"><path fill-rule="evenodd" d="M385 359c-11-6-29-6-40 0l-161 92-27-16q-8-3-9 5v13q1 9 9 15l71 40q4 3 6 0l256 148c11 6 29 6 40 0l128-74h1l88-51q5-4 5-9v-7q0-5-5-3l-49 28-4-2z" class="selectable"/></mask><path fill-rule="evenodd" d="M385 359c-11-6-29-6-40 0l-161 92-27-16q-8-3-9 5v13q1 9 9 15l71 40q4 3 6 0l256 148c11 6 29 6 40 0l128-74h1l88-51q5-4 5-9v-7q0-5-5-3l-49 28-4-2z" class="selectable"/><path d="m345 359-1-1zm40 0 1-1zm-201 92 1 2h-1zm-27-16-1 2zm0 33-1 1zm71 40zm6 0zl1-1 1 1zm256 148 1-2zm40 0-1-2zm128-74-1-1 1-1zm1 0-1-2zm88-51-1-2zm0-19-1-1zm-49 28 1 2h-2zm-4-2 1-2zM344 358q9-5 21-5c12 0 15 1 21 5l-2 3q-8-5-19-5c-11 0-14 2-20 5zm-160 92 160-92 1 3-160 92zm0 3-28-16 2-3 27 16zm-28-16-4-1-2 4h-3q0-4 3-7 4-3 8 1zm-6 3v13h-3v-13zm0 13 2 7 6 6-2 3q-4-2-7-7-3-6-2-9zm8 13 70 41-1 3-71-41zm70 41h5l3 2q-4 4-9 1zm261 150L234 510l1-3 256 147zm42 0q-9 6-21 5c-12-1-15-1-21-5l2-3q8 5 19 5c11 0 14-2 19-5zm128-73-128 73-2-3 128-73zm1-1-1 1-1-4zm88-51-88 51-2-3 88-51zm6-10-2 6-4 4-2-3 3-3 1-4zm0-7v7h-4v-7zm-8-4q3-2 5-1 3 2 3 5h-4v-2l-2 1zm-49 28 49-28 2 3-49 28zm-2-3 4 3-2 3-3-3zM386 358l309 178-1 3-310-178z" class="selectable" mask="url(#c)"/></mask><g mask="url(#d)"><rect width="285" height="52" fill="silver" class="svgShape colorc0c0c0-17 selectable" rx="10" transform="matrix(-.86603 .5 0 1 752 493)"/></g><path fill="#060606" d="M395 301c-9-5-24-5-34 0L143 427q-13 10 0 20l351 202c9 5 24 5 33 0l219-126q13-10 0-19z" class="svgShape color060606-18 selectable"/><path fill="silver" d="m354 569-63-37q1 5 4 8l55 31q3 2 4-2" class="svgShape colorc0c0c0-19 selectable"/><path fill="#060606" stroke="#2f2f2f" stroke-width="2" d="M390 310q-9-4-17 0l-128 74q-6 5 0 9l341 197q9 5 18 0l127-73q8-5 0-10z" class="svgShape color060606-20 svgStroke colorStroke2f2f2f-20 selectable"/><path fill="#1b1b1b" d="M397 332h-5l-17-10q-3-1 0-2l7-5h5l17 10v3z" class="svgShape color1b1b1b-21 selectable"/><g fill="#060606"><path d="m394 333-2-1-17-9-1-1v-2l1-1 7-4h5l17 10 1 1v2h-1l-7 4zm-10-18-2 1-7 4h-1a1 1 0 0 0 0 2h1l17 10h4l7-4 1-1v-1h-1l-17-10z" class="svgShape color060606-23 selectable"/><path d="m404 328-7 4h-5l-17-10h-1v-1 5h1l17 10h5l7-4 1-1v-4z" class="svgShape color060606-24 selectable"/><path d="M394 337h-2l-17-10-1-1-1-1v-4h1v1h1l17 10h4l7-4 1-1v-1h1q1 0 0 0v5l-1 2-7 4zm-20-15v4h1l17 10h4l7-4 1-1v-3l-7 4h-5z" class="svgShape color060606-25 selectable"/><path d="M397 332v4l7-4v-4z" class="svgShape color060606-26 selectable"/><path d="M397 337zv-4l7-4h1v5zm0-5v3l6-3v-3z" class="svgShape color060606-27 selectable"/></g><path fill="#2f2f2f" d="M375 322v4l17 10v-4z" class="svgShape color2f2f2f-28 selectable"/><path fill="#060606" d="m392 337-17-10-1-1v-4h1l17 10zm-17-11 16 9v-3l-16-9z" class="svgShape color060606-29 selectable"/><path fill="#1b1b1b" d="M421 346h-4l-17-9q-3-1 0-3l7-4h4l17 10q3 1 0 2z" class="svgShape color1b1b1b-30 selectable"/><g fill="#060606"><path d="M419 347h-3l-17-10-1-1v-1l1-2 7-4h6l17 10a2 2 0 0 1 0 4l-7 4zm-10-17h-2l-7 4-1 1v1h1l17 10h4l7-4h1a1 1 0 0 0 0-2h-1l-17-10z" class="svgShape color060606-32 selectable"/><path d="m428 342-7 4h-4l-17-9-1-1v-1 4l1 2 17 10h4l7-5 1-1v-4z" class="svgShape color060606-33 selectable"/><path d="m419 352-3-1-17-10-1-2v-4h1l1 1 17 10h4l7-4 1-1h1v4l-1 2-7 4zm-20-15v3h1l17 10 2 1 2-1 7-4 1-1v-2l-7 4h-6z" class="svgShape color060606-34 selectable"/><path d="M421 346v5l7-5v-4z" class="svgShape color060606-35 selectable"/><path d="M421 351v-5l7-4h1v5zm1-4v3l6-4v-3z" class="svgShape color060606-36 selectable"/></g><path fill="#2f2f2f" d="M400 337v4l17 10v-5z" class="svgShape color2f2f2f-37 selectable"/><path fill="#060606" d="M417 351zl-17-10v-5h1l17 10zm-17-11 16 10v-3l-16-10z" class="svgShape color060606-38 selectable"/><path fill="#1b1b1b" d="M446 361h-5l-17-10v-3l7-4h5l17 10v3z" class="svgShape color1b1b1b-39 selectable"/><g fill="#060606"><path d="m444 362-3-1-17-10h-1v-3h1l7-4h5l17 9 1 3-1 1-7 4zm-10-18h-3l-7 4v2l18 10h4l7-4v-2l-17-10z" class="svgShape color060606-41 selectable"/><path d="m453 357-7 4h-5l-17-10v-1l-1-1v5h1v1l17 10h5l7-4 1-2v-4z" class="svgShape color060606-42 selectable"/><path d="m444 366-3-1-17-10-1-1v-5h1v1l18 10 2 1 2-1 7-4 1-1h1v4l-2 2-7 4zm-20-15v3l1 1 17 9 2 1 2-1 7-4 1-1v-2h-1l-7 4-2 1-3-1z" class="svgShape color060606-43 selectable"/><path d="M446 361v4l7-4v-4z" class="svgShape color060606-44 selectable"/><path d="M446 365v-5l7-4h1v5h-1zm1-4v3l6-3v-4z" class="svgShape color060606-45 selectable"/></g><path fill="#2f2f2f" d="M424 351v4l17 10v-4z" class="svgShape color2f2f2f-46 selectable"/><path fill="#060606" d="m441 365-17-10v-5h1l17 10v5zm-16-10 16 9v-3l-16-9z" class="svgShape color060606-47 selectable"/><path fill="#1b1b1b" d="M471 375h-5l-17-10v-3l7-4h5l17 10v3z" class="svgShape color1b1b1b-48 selectable"/><g fill="#060606"><path d="m469 376-3-1-17-9-1-1v-2l1-1 7-4 3-1 2 1 17 10h1l-1 3-7 4zm-11-18-2 1-7 4v2l17 10h5l7-4v-2l-17-10z" class="svgShape color060606-50 selectable"/><path d="m478 371-7 4h-5l-17-10-1-1v4l1 1 17 10h5l7-4 1-1v-4z" class="svgShape color060606-51 selectable"/><path d="m469 380-3-1-17-9-1-2v-5l1 1v1l17 10h5l7-4v-1l1-1v5l-1 1-7 4zm-20-15v4l17 10h5l7-4 1-1v-3h-1l-7 4-2 1-3-1z" class="svgShape color060606-52 selectable"/><path d="M471 375v4l7-4v-4z" class="svgShape color060606-53 selectable"/><path d="M471 380zv-4l7-4v-1 5zm0-5v3l7-3v-3z" class="svgShape color060606-54 selectable"/></g><path fill="#2f2f2f" d="M449 365v4l17 10v-4z" class="svgShape color2f2f2f-55 selectable"/><path fill="#060606" d="M466 380zl-17-9v-5l17 10h1zm-16-11 16 9v-3l-16-9z" class="svgShape color060606-56 selectable"/><path fill="#1b1b1b" d="M496 389h-5l-17-10v-2l7-4 2-1 3 1 17 9v3z" class="svgShape color1b1b1b-57 selectable"/><g fill="#060606"><path d="M493 390h-2l-17-10-1-3 1-1 7-4h5l17 10 1 1-1 3-7 4zm-10-18-2 1-7 4a1 1 0 0 0 0 2l17 10h5l7-4v-2l-18-10z" class="svgShape color060606-59 selectable"/><path d="m503 385-7 4h-5l-17-10h-1v-1 5l1 1 17 9 2 1 3-1 7-4 1-1v-4z" class="svgShape color060606-60 selectable"/><path d="M493 394h-2l-17-10-2-2v-4h1l1 1 17 10h5l7-4v-1l1-1v1q0 1 0 0v4l-1 2-7 4zm-20-14v2l1 1 17 10h5l6-4 1-1v-3 1l-7 4h-5z" class="svgShape color060606-61 selectable"/><path d="M496 389v4l7-4v-4z" class="svgShape color060606-62 selectable"/><path d="M496 394zv-4h1l6-4h1v5zm0-5v4l6-4v-3z" class="svgShape color060606-63 selectable"/></g><path fill="#2f2f2f" d="M474 379v5l17 9v-4z" class="svgShape color2f2f2f-64 selectable"/><path fill="#060606" d="m491 394-17-10h-1v-5h1q1 0 0 0l17 10zm-17-11 17 10v-4l-17-9z" class="svgShape color060606-65 selectable"/><path fill="#1b1b1b" d="M521 404h-5l-17-10q-3-2 0-3l7-4h4l18 10v2z" class="svgShape color1b1b1b-66 selectable"/><g fill="#060606"><path d="m518 405-2-1-18-10v-3l7-4 3-1 3 1 17 9 1 2-1 2-7 4zm-10-18h-2l-7 4a1 1 0 0 0-1 2h1l17 10h4l7-4 1-1v-1h-1l-17-10z" class="svgShape color060606-68 selectable"/><path d="m528 399-7 5h-5l-17-10-1-1v-1 5l1 1 17 10h5l7-4 1-2z" class="svgShape color060606-69 selectable"/><path d="m518 409-3-1-17-10v-1l-1-1v-4h1l1 1 17 10h4l7-4 1-1h1v4l-1 2-7 4zm-20-15v3h1l17 10 2 1 2-1 7-4 1-1v-2l-7 4h-5z" class="svgShape color060606-70 selectable"/><path d="M521 404v4l7-4v-5z" class="svgShape color060606-71 selectable"/><path d="M521 408zv-5l7-4h1v5zm0-4v3l6-4v-3z" class="svgShape color060606-72 selectable"/></g><path fill="#2f2f2f" d="M499 394v4l17 10v-4z" class="svgShape color2f2f2f-73 selectable"/><path fill="#060606" d="m516 408-18-10v-5h1l17 10v5m-17-10 16 9v-3l-16-10z" class="svgShape color060606-74 selectable"/><path fill="#1b1b1b" d="M545 418h-4l-18-10v-3l7-4h5l17 10q3 2 0 3z" class="svgShape color1b1b1b-75 selectable"/><g fill="#060606"><path d="m543 419-3-1-17-10h-1v-2l1-1 7-4 3-1 2 1 18 10v3l-7 4zm-10-18-2 1-7 4h-1v1l1 1 17 9 2 1 2-1 7-4h1v-1l-1-1-17-9z" class="svgShape color060606-77 selectable"/><path d="m552 414-7 4h-4l-18-10v-1 5l18 10h4l7-4 1-1v-5z" class="svgShape color060606-78 selectable"/><path d="m543 423-3-1-17-9-1-1v-6h1v1l1 1 17 9 2 1 2-1 7-4 1-1h1v5l-1 1-7 4zm-20-15v3l1 1 17 10h4l7-4 1-1v-3l-7 4h-6z" class="svgShape color060606-79 selectable"/><path d="M545 418v4l7-4v-4z" class="svgShape color060606-80 selectable"/><path d="M545 422v-5l7-4 1 1v4zm1-4v3l6-3v-3z" class="svgShape color060606-81 selectable"/></g><path fill="#2f2f2f" d="M523 408v4l18 10v-4z" class="svgShape color2f2f2f-82 selectable"/><path fill="#060606" d="M541 422zl-17-10v-4h1l17 9v5m-17-10 16 9v-3l-16-9z" class="svgShape color060606-83 selectable"/><path fill="#1b1b1b" d="m570 432-2 1-3-1-17-10v-2l7-5h5l17 10v3z" class="svgShape color1b1b1b-84 selectable"/><g fill="#060606"><path d="m568 433-3-1-17-9-1-1v-2l1-1 7-4 3-1 2 1 17 10v3l-7 4zm-10-18-3 1-7 4v2l18 10h4l7-4v-2l-17-10z" class="svgShape color060606-86 selectable"/><path d="m577 428-7 4h-5l-17-10-1-1v4l1 1 17 10h5l7-4 1-1v-4z" class="svgShape color060606-87 selectable"/><path d="M568 437h-3l-17-10-1-1v-6l1 1q1 0 0 0v1l18 10h4l7-4 1-1v-1l1 1v4l-2 2-7 4zm-20-15v4l18 10h4l7-4 1-1v-3h-1l-7 4h-5z" class="svgShape color060606-88 selectable"/><path d="M570 432v4l7-4v-4z" class="svgShape color060606-89 selectable"/><path d="M570 437zv-4l7-4h1v4l-1 1zm1-5v3l6-3v-3z" class="svgShape color060606-90 selectable"/></g><path fill="#2f2f2f" d="M548 422v4l17 10v-4z" class="svgShape color2f2f2f-91 selectable"/><path fill="#060606" d="m565 437-17-10v-5l18 10zm-16-11 16 9v-3l-16-9z" class="svgShape color060606-92 selectable"/><path fill="#1b1b1b" d="M595 446h-5l-17-9v-3l7-4 2-1 3 1 17 10v2z" class="svgShape color1b1b1b-93 selectable"/><g fill="#060606"><path d="M592 447h-2l-17-10a2 2 0 0 1 0-4l7-4h5l17 10 1 1v2l-1 1-7 4zm-10-17h-2l-7 4v2l17 10h5l7-4a1 1 0 0 0 0-2l-17-10z" class="svgShape color060606-95 selectable"/><path d="m602 442-7 4h-5l-17-9-1-1v-1 5l1 1 17 10h5l7-5h1v-5z" class="svgShape color060606-96 selectable"/><path d="m592 452-2-1-17-10-1-2v-4l1 1 17 10h5l7-4v-1h1v4l-1 2-7 4zm-20-15v2l1 1 17 10 2 1 3-1 7-4v-4 1l-7 4h-5z" class="svgShape color060606-97 selectable"/><path d="M595 446v5l7-5v-4z" class="svgShape color060606-98 selectable"/><path d="M595 451zv-5h1l7-4v5zm0-4v3l6-4v-3z" class="svgShape color060606-99 selectable"/></g><path fill="#2f2f2f" d="M573 437v4l17 10v-5z" class="svgShape color2f2f2f-100 selectable"/><path fill="#060606" d="m590 451-17-10v-5l17 10h1zq-1 0 0 0m-17-11 17 10v-3l-17-10z" class="svgShape color060606-101 selectable"/><path fill="#1b1b1b" d="M620 461h-5l-17-10v-3l7-4 2-1 3 1 17 10v3z" class="svgShape color1b1b1b-102 selectable"/><g fill="#060606"><path d="m617 462-2-1-17-10h-1l1-3 7-4h5l17 10v3l-7 4zm-10-18h-2l-7 4-1 1v1h1l17 10h4l7-4h1v-1l-1-1-17-10z" class="svgShape color060606-104 selectable"/><path d="m627 457-7 4h-5l-17-10-1-1v-1 5l1 1 17 10h5l7-4v-1l1-1v-4z" class="svgShape color060606-105 selectable"/><path d="m617 466-2-1-17-10h-1l-1-1v-5h1v1h1l17 10 2 1 2-1 7-4 1-1h1v4l-1 2-7 4zm-20-15v3l1 1 17 9 2 1 2-1 7-4 1-1v-2l-7 4h-5z" class="svgShape color060606-106 selectable"/><path d="M620 461v4l7-4v-4z" class="svgShape color060606-107 selectable"/><path d="M620 465zv-5l7-4h1v5zm0-4v3l6-3v-4z" class="svgShape color060606-108 selectable"/></g><path fill="#2f2f2f" d="M598 451v4l17 10v-4z" class="svgShape color2f2f2f-109 selectable"/><path fill="#060606" d="m615 465-17-10h-1v-4l1-1 17 10v5m-17-10 16 9v-3l-16-9z" class="svgShape color060606-110 selectable"/><path fill="#1b1b1b" d="m644 475-2 1-2-1-17-10q-3-1 0-3l7-4h4l17 10q3 2 0 3z" class="svgShape color1b1b1b-111 selectable"/><g fill="#060606"><path d="m642 476-3-1-17-10-1-1 1-1v-1l7-4h6l17 10 1 2v1h-1l-7 4zm-10-18-2 1-7 4-1 1 1 1 17 10h4l7-4 1-1v-1h-1l-17-10z" class="svgShape color060606-113 selectable"/><path d="m651 471-7 4h-4l-17-10h-1v-1 5h1l17 10h4l7-4 1-1v-4z" class="svgShape color060606-114 selectable"/><path d="m642 480-3-1-17-9v-1l-1-1v-5h1v1l1 1 17 10h4l7-4 1-1v-1h1v5l-1 1-7 4zm-20-15v3l1 1 17 10h4l7-4 1-1v-3l-7 4h-6z" class="svgShape color060606-115 selectable"/><path d="M644 475v4l7-4v-4z" class="svgShape color060606-116 selectable"/><path d="M644 480zv-4l7-4v-1l1 1v4zm1-5v3l6-3v-3z" class="svgShape color060606-117 selectable"/></g><path fill="#2f2f2f" d="M623 465v4l17 10v-4z" class="svgShape color2f2f2f-118 selectable"/><path fill="#060606" d="M640 480zl-17-9v-5h1l17 10zm-17-11 16 9v-3l-16-9z" class="svgShape color060606-119 selectable"/><path fill="#1b1b1b" d="m669 489-2 1-3-1-17-10v-2l7-4h5l17 9q3 2 0 3z" class="svgShape color1b1b1b-120 selectable"/><g fill="#060606"><path d="M667 490h-3l-17-10-1-1v-2l1-1 7-4h5l17 10 1 3-1 1-7 4zm-10-18-2 1-7 4h-1a1 1 0 0 0 0 2h1l17 10h4l7-4 1-1v-1h-1l-17-10z" class="svgShape color060606-122 selectable"/><path d="m676 485-7 4h-5l-17-10-1-1v4l1 1v1l17 9h5l7-4 1-1v-4z" class="svgShape color060606-123 selectable"/><path d="M667 494h-3l-17-10-1-1v-5h1v1h1l17 10h4l7-4 1-1v-1l1 1q1 1 0 0v4l-2 2-7 4zm-20-14v3h1l17 10h4l7-4 1-1v-3l-1 1-7 4h-5z" class="svgShape color060606-124 selectable"/><path d="M669 489v4l7-4v-4z" class="svgShape color060606-125 selectable"/><path d="M669 494zv-4l7-4h1v4l-1 1zm1-5v4l6-4v-3z" class="svgShape color060606-126 selectable"/></g><path fill="#2f2f2f" d="M647 479v5l17 9v-4z" class="svgShape color2f2f2f-127 selectable"/><path fill="#060606" d="m664 494-17-10v-5h1l17 10zm-16-11 16 10v-3l-16-10z" class="svgShape color060606-128 selectable"/><path fill="#1b1b1b" d="M694 504h-5l-17-10v-3l7-4 3-1 2 1 17 10v2z" class="svgShape color1b1b1b-129 selectable"/><g fill="#060606"><path d="m692 505-3-1-17-10-1-2 1-1 7-4h5l17 9 1 1v2l-1 1-7 4zm-10-18h-3l-7 4a1 1 0 0 0 0 2l17 10h5l7-4a1 1 0 0 0 0-2l-17-10z" class="svgShape color060606-131 selectable"/><path d="m701 499-7 5h-5l-17-10v-1l-1-1v4l1 1v1l17 10h5l7-4 1-2v-4z" class="svgShape color060606-132 selectable"/><path d="m692 509-3-1-17-10-1-1v-5h1v1l17 10 3 1 2-1 7-4 1-1v4l-1 2-7 4zm-20-15v3l17 10h5l7-4 1-1v-2h-1l-7 4h-5z" class="svgShape color060606-133 selectable"/><path d="M694 504v4l7-4v-5z" class="svgShape color060606-134 selectable"/><path d="M694 508v-5l7-4v5zm0-4v3l7-4v-3z" class="svgShape color060606-135 selectable"/></g><path fill="#2f2f2f" d="M672 494v4l17 10v-4z" class="svgShape color2f2f2f-136 selectable"/><path fill="#060606" d="m689 508-17-10v-5q0-1 0 0 0-1 0 0l17 10h1zm-16-10 16 9v-3l-16-10z" class="svgShape color060606-137 selectable"/><path fill="#1b1b1b" d="m709 512-3 1-2-1-7-4v-3l7-4h5l7 4v3z" class="svgShape color1b1b1b-138 selectable"/><g fill="#060606"><path d="m706 513-2-1-7-4v-3l7-4h5l7 4 1 3h-1l-7 4zm0-12-2 1-7 4a1 1 0 0 0 0 2l7 4h5l7-4v-2l-7-4z" class="svgShape color060606-140 selectable"/><path d="m716 508-7 4h-5l-7-4-1-1v5h1l7 4h5l7-4 1-1v-4z" class="svgShape color060606-141 selectable"/><path d="m706 517-2-1-7-4h-1v-6 1h1v1l7 4h5l7-4v-1l1-1v5l-1 1-7 4zm-10-9v3h1v1l7 4h5l7-4v-4l-7 4h-5z" class="svgShape color060606-142 selectable"/><path d="M709 512v4l7-4v-4z" class="svgShape color060606-143 selectable"/><path d="M709 517zv-4h1l7-4v4zm0-5v3l6-3v-3z" class="svgShape color060606-144 selectable"/></g><path fill="#2f2f2f" d="M697 508v4l7 4v-4z" class="svgShape color2f2f2f-145 selectable"/><path fill="#060606" d="M704 517zl-7-4v-4l7 4zm-7-5 7 3v-3l-7-3z" class="svgShape color060606-146 selectable"/><path fill="#1b1b1b" d="M372 345h-5l-15-9q-3-2 0-3l15-9h5l15 9q3 2 0 3z" class="svgShape color1b1b1b-147 selectable"/><g fill="#060606"><path d="m369 346-2-1-16-9v-3l16-9h5l16 9v3l-16 9zm0-22h-2l-15 9-1 1v1h1l15 9h5l15-9 1-1-1-1-15-9z" class="svgShape color060606-149 selectable"/><path d="m387 336-15 9h-5l-15-9-1-1v-1 5l1 1 15 9h5l15-9 1-2v-4z" class="svgShape color060606-150 selectable"/><path d="m369 350-2-1-16-9-1-2v-4h1q1 0 0 0l1 1 15 9h5l15-9h1v-1h1v4l-1 1v1l-16 9zm-18-14v2l1 1 15 9h5l15-9h1v-3l-16 9h-5z" class="svgShape color060606-151 selectable"/><path d="M372 345v4l15-9v-4z" class="svgShape color060606-152 selectable"/><path d="M372 349zv-5h1l15-9h1v5zm0-4v3l15-8v-4z" class="svgShape color060606-153 selectable"/></g><path fill="#2f2f2f" d="m352 340 15 9v-4l-15-9z" class="svgShape color2f2f2f-154 selectable"/><path fill="#060606" d="m367 349-16-9v-5h1l15 9v5m-15-9 15 8v-3l-15-9z" class="svgShape color060606-155 selectable"/><path fill="#1b1b1b" d="M395 358h-5l-15-9q-3-2 0-3l15-9h5l16 9v3z" class="svgShape color1b1b1b-156 selectable"/><g fill="#060606"><path d="m393 359-3-1-15-9h-1v-2l1-1 15-9 3-1 2 1 16 9 1 1v2h-1l-16 9zm0-22-3 1-15 9h-1v1l1 1 15 9h5l15-9 1-1-1-1-15-9z" class="svgShape color060606-158 selectable"/><path d="m411 349-16 9-2 1-3-1-15-9-1-1v5h1l15 9h5l16-9 1-1v-4z" class="svgShape color060606-159 selectable"/><path d="m393 363-3-1-15-8-1-1-1-1v-4l1-1v1l1 1 15 9h5l15-9 1-1v-1l1 1v5l-1 1-16 8zm-19-14v3l1 1 15 9h5l15-9 1-1v-3l-16 9h-5z" class="svgShape color060606-160 selectable"/><use xlink:href="#e" class="svgShape color060606-161 selectable"/><path d="M395 363zv-4l15-9h1v5zm0-5v3l15-8v-3z" class="svgShape color060606-162 selectable"/></g><use xlink:href="#f" fill="#2f2f2f" class="svgShape color2f2f2f-163 selectable"/><path fill="#060606" d="M390 363zl-15-8-1-1v-4h1l15 9h1zm-15-10 15 8v-3l-15-8z" class="svgShape color060606-164 selectable"/><path fill="#1b1b1b" d="M418 371h-5l-15-9v-2l16-9h4l16 9v2z" class="svgShape color1b1b1b-165 selectable"/><g fill="#060606"><path d="M416 372h-3l-15-9a2 2 0 0 1 0-4l15-9h5l16 9a2 2 0 0 1 0 4l-16 9zm0-21h-2l-16 9-1 1 1 1 16 9h4l16-9v-2l-16-9z" class="svgShape color060606-167 selectable"/><path d="m434 362-16 9h-5l-15-9-1-1v4l1 2 16 9h4l16-9v-1l1-1z" class="svgShape color060606-168 selectable"/><path d="m416 377-3-1-15-9-1-1v-5l1 1 16 9h4l16-9v-1h1v5l-1 1-16 9zm-19-14v2l1 1 16 9h4l16-9v-3l-16 9h-5z" class="svgShape color060606-169 selectable"/><use xlink:href="#e" x="23" y="13" class="svgShape color060606-170 selectable"/><path d="M418 376v-5l16-9v5zm1-4v3l14-9v-3z" class="svgShape color060606-171 selectable"/></g><use xlink:href="#f" x="23" y="13" fill="#2f2f2f" class="svgShape color2f2f2f-172 selectable"/><path fill="#060606" d="M414 376zl-15-9v-5l16 9zm-16-10 15 9v-3l-15-9z" class="svgShape color060606-173 selectable"/><path fill="#1b1b1b" d="M442 385h-5l-16-9v-3l16-9h5l15 9v3z" class="svgShape color1b1b1b-174 selectable"/><g fill="#060606"><path d="m439 386-2-1-16-9-1-2v-1h1l16-9h5l15 9h1v3h-1l-15 9zm0-22-2 1-16 8v2l16 9h4l16-9v-2l-16-8z" class="svgShape color060606-176 selectable"/><path d="m457 376-15 9h-5l-16-9-1-2v5h1v1l16 9h5l15-9 1-1v-5z" class="svgShape color060606-177 selectable"/><path d="m439 390-2-1-16-9h-1v-6h1v1l16 9h4l16-9 1-1v6h-1l-15 9zm-18-14v4l16 9h4l16-9 1-1v-3h-1l-15 9-3 1-2-1z" class="svgShape color060606-178 selectable"/><path d="M442 385v4l15-9v-4z" class="svgShape color060606-179 selectable"/><path d="M442 389zv-5l16-9v5zm0-4v3l15-8v-3z" class="svgShape color060606-180 selectable"/></g><use xlink:href="#f" x="46" y="27" fill="#2f2f2f" class="svgShape color2f2f2f-181 selectable"/><path fill="#060606" d="m437 389-16-9v-5l16 9v5m-15-9 14 8v-3l-14-8z" class="svgShape color060606-182 selectable"/><path fill="#1b1b1b" d="m465 398-3 1-2-1-16-9v-3l16-8h5l15 8q3 2 0 3z" class="svgShape color1b1b1b-183 selectable"/><g fill="#060606"><path d="M462 399h-2l-16-9a2 2 0 0 1 0-4l16-9h5l15 9a2 2 0 0 1 0 4l-15 9zm0-22-2 1-15 9h-1v1l1 1 15 9h5l15-9 1-1-1-1-15-9z" class="svgShape color060606-185 selectable"/><path d="m480 389-15 9-3 1-2-1-16-9-1-1v4l1 1 16 9h5l15-9 1-1v-4z" class="svgShape color060606-186 selectable"/><path d="M462 403h-2l-16-9-1-1v-6l1 1q0 1 0 0l1 1 15 9h5l15-9 1-1v-1l1 1v4l-2 2-15 9zm-18-14v4h1l15 9h5l15-9 1-1v-3l-1 1-15 9h-5z" class="svgShape color060606-187 selectable"/><path d="M465 398v4l15-9v-4z" class="svgShape color060606-188 selectable"/><path d="M465 403zv-4h1l15-9h1v5h-1zm0-5v4l15-9v-3z" class="svgShape color060606-189 selectable"/></g><use xlink:href="#g" fill="#2f2f2f" class="svgShape color2f2f2f-190 selectable"/><path fill="#060606" d="m460 403-16-9v-5h1l15 9zq0 1 0 0m-15-10 15 9v-4l-15-8z" class="svgShape color060606-191 selectable"/><path fill="#1b1b1b" d="M488 412h-5l-15-9q-3-2 0-3l15-9h5l16 9v3z" class="svgShape color1b1b1b-192 selectable"/><g fill="#060606"><path d="m486 413-3-1-16-9v-3l16-9h5l16 9h1v2l-1 1-16 9zm0-22h-3l-15 9-1 1v1h1l15 9h5l15-9h1v-1l-1-1-15-9z" class="svgShape color060606-194 selectable"/><path d="m504 403-16 9h-5l-15-9-1-2v4l1 2 15 9h5l15-9 1-1v-5z" class="svgShape color060606-195 selectable"/><path d="m486 417-3-1-16-9v-1l-1-1v-4h1v1h1l15 9h5l15-9 1-1h1v5l-1 1-16 9zm-19-14v2l1 1 15 9 3 1 2-1 15-9 1-1v-2l-16 9h-5z" class="svgShape color060606-196 selectable"/><use xlink:href="#e" x="93" y="54" class="svgShape color060606-197 selectable"/><path d="M488 416v-5l15-9h1v5zm0-4v3l15-9v-3z" class="svgShape color060606-198 selectable"/></g><use xlink:href="#h" fill="#2f2f2f" class="svgShape color2f2f2f-199 selectable"/><path fill="#060606" d="m483 416-15-9h-1v-4l1-1 15 9 1 1zm-15-9 15 8v-3l-15-9z" class="svgShape color060606-200 selectable"/><path fill="#1b1b1b" d="m511 425-2 1-3-1-15-9v-3l15-9h5l16 9v3z" class="svgShape color1b1b1b-201 selectable"/><g fill="#060606"><path d="m509 426-3-1-15-9h-1v-2l1-1 15-9 3-1 2 1 16 9 1 3h-1l-16 9zm0-22-2 1-16 9-1 1h1v1l16 9h4l16-9a1 1 0 0 0 0-2l-16-9z" class="svgShape color060606-203 selectable"/><path d="m527 416-16 9-2 1-3-1-15-9-1-1v5h1l15 9h5l16-9 1-1v-4z" class="svgShape color060606-204 selectable"/><path d="m509 430-3-1-15-8-1-1v-6 1l1 1 16 9h4l16-9v-1h1v4l-1 2-16 8zm-19-14v3h1v1l16 9h4l16-9v-4l-16 9h-5z" class="svgShape color060606-205 selectable"/><use xlink:href="#e" x="116" y="67" class="svgShape color060606-206 selectable"/><path d="M511 430zv-4l16-9v5zm1-5v3l14-8v-3z" class="svgShape color060606-207 selectable"/></g><use xlink:href="#h" x="23" y="13" fill="#2f2f2f" class="svgShape color2f2f2f-208 selectable"/><path fill="#060606" d="M506 430zl-15-8v-5l16 9zm-15-10 15 8v-3l-15-8z" class="svgShape color060606-209 selectable"/><use xlink:href="#i" fill="#1b1b1b" class="svgShape color1b1b1b-210 selectable"/><g fill="#060606"><path d="M532 439h-3l-15-9-1-1 1-3 15-9h6l15 9 1 2v1l-1 1-15 9zm0-21h-2l-16 9v2l16 9h4l16-9a1 1 0 0 0 0-2l-16-9z" class="svgShape color060606-212 selectable"/><path d="m550 429-16 9h-4l-16-9-1-1v4l1 1v1l16 8h4l16-8 1-1v-5z" class="svgShape color060606-213 selectable"/><path d="M532 443h-3l-15-9-1-1v-5h1v1l16 9h4l16-9 1-1v4l-1 2-15 9zm-18-13v3l16 9h4l16-9 1-1v-2h-1l-15 9h-5z" class="svgShape color060606-214 selectable"/><use xlink:href="#e" x="139" y="80" class="svgShape color060606-215 selectable"/><path d="M534 443zv-4l16-9v5zm1-4v3l15-9v-3z" class="svgShape color060606-216 selectable"/></g><use xlink:href="#h" x="46" y="27" fill="#2f2f2f" class="svgShape color2f2f2f-217 selectable"/><path fill="#060606" d="M530 443zl-15-9v-5l16 9zm-15-10 14 9v-3l-14-9z" class="svgShape color060606-218 selectable"/><path fill="#1b1b1b" d="M558 452h-5l-16-9v-3l16-9h5l15 9q3 2 0 3z" class="svgShape color1b1b1b-219 selectable"/><g fill="#060606"><path d="m555 453-2-1-16-9-1-1v-1l1-1 16-9h5l15 9 2 1-1 1-1 1-15 9zm0-22h-2l-15 9-1 1v1h1l15 9h5l15-9 1-1-1-1-15-9z" class="svgShape color060606-221 selectable"/><path d="m573 443-15 9h-5l-16-9v-1l-1-1v5h1v1l16 9h5l15-9 1-1v-5z" class="svgShape color060606-222 selectable"/><path d="m555 457-2-1-16-9h-1v-6h1v1h1l15 9h5l15-9h1v-1h1v5l-1 1h-1l-15 9zm-18-14v3l1 1 15 8h5l15-8 1-1v-3h-1l-15 9h-5z" class="svgShape color060606-223 selectable"/><use xlink:href="#e" x="163" y="94" class="svgShape color060606-224 selectable"/><path d="M558 456zv-4l1-1 15-9 1 1v4h-1zm0-4v3l15-8v-3z" class="svgShape color060606-225 selectable"/></g><use xlink:href="#h" x="70" y="40" fill="#2f2f2f" class="svgShape color2f2f2f-226 selectable"/><path fill="#060606" d="m553 456-16-9v-5h1l15 9v5m-15-9 15 8v-3l-15-8z" class="svgShape color060606-227 selectable"/><path fill="#1b1b1b" d="m581 465-2 1-3-1-15-9q-3-1 0-3l15-9h5l16 9v3z" class="svgShape color1b1b1b-228 selectable"/><g fill="#060606"><path d="M579 466h-3l-16-9v-4l16-9h5l16 9 1 3-1 1-16 9zm0-22-3 1-15 9h-1a1 1 0 0 0 1 2l15 9h5l15-9 1-1v-1h-1l-15-9z" class="svgShape color060606-230 selectable"/><path d="m596 456-15 9h-5l-15-9h-1v-1 5h1l15 9h5l15-9h1v-5 1z" class="svgShape color060606-231 selectable"/><path d="M579 470h-3l-16-9v-1l-1-1v-5h1v1l1 1 15 9h5l15-9 1-1v-1l1 1v4l-1 2-16 9zm-19-14v4h1l15 9h5l15-9 1-1v-3 1l-16 8h-5z" class="svgShape color060606-232 selectable"/><path d="M581 465v4l15-9v-4z" class="svgShape color060606-233 selectable"/><path d="M581 470zv-4l15-9h1v5zm0-5v3l15-8v-3z" class="svgShape color060606-234 selectable"/></g><use xlink:href="#g" x="116" y="67" fill="#2f2f2f" class="svgShape color2f2f2f-235 selectable"/><path fill="#060606" d="m576 470-16-9v-5h1l15 9h1zm-15-10 15 9v-4l-15-8z" class="svgShape color060606-236 selectable"/><path fill="#1b1b1b" d="M604 479h-5l-15-9v-3l15-9h5l16 9v3z" class="svgShape color1b1b1b-237 selectable"/><g fill="#060606"><path d="m602 480-3-1-15-9-1-1v-2l1-1 15-8 3-1 2 1 16 8a2 2 0 0 1 0 4l-16 9zm0-22h-2l-16 9v2l16 9h4l16-9v-2l-16-9z" class="svgShape color060606-239 selectable"/><path d="m620 470-16 8-2 1-3-1-15-8-1-2v5l1 1 15 9h5l16-9v-1l1-1v-4z" class="svgShape color060606-240 selectable"/><path d="m602 484-3-1-15-9-2-2v-4h1l1 1 16 9h4l15-9h1v-1h1v5l-1 1-16 9zm-19-14v2l1 1 16 9h4l16-9v-3l-16 9h-5z" class="svgShape color060606-241 selectable"/><path d="M604 479v4l16-9v-4z" class="svgShape color060606-242 selectable"/><path d="M604 483v-5l16-9v5zm1-4v3l14-9v-3z" class="svgShape color060606-243 selectable"/></g><path fill="#2f2f2f" d="m584 474 15 9v-4l-15-9z" class="svgShape color2f2f2f-244 selectable"/><path fill="#060606" d="m599 483-15-9v-5l16 9v5zm-15-10 15 9v-3l-15-9z" class="svgShape color060606-245 selectable"/><path fill="#1b1b1b" d="M627 492h-4l-16-9v-3l16-9h4l16 9v3z" class="svgShape color1b1b1b-246 selectable"/><g fill="#060606"><path d="m625 493-3-1-15-9-1-2 1-1 15-9 3-1 3 1 15 9 1 1-1 2-15 9zm0-22-2 1-16 9v2l16 9h4l16-9v-2l-16-9z" class="svgShape color060606-248 selectable"/><path d="m643 483-16 9h-4l-16-9-1-1v5h1l16 9 2 1 2-1 16-9h1v-5z" class="svgShape color060606-249 selectable"/><path d="m625 497-3-1-15-9-1-1v-5l1 1v1l16 9h4l16-9 1-1v-1 6h-1l-15 9zm-18-14v4l16 9h4l16-9v-1h1v-3h-1l-15 9h-6z" class="svgShape color060606-250 selectable"/><use xlink:href="#j" class="svgShape color060606-251 selectable"/><path d="M627 496v-4l16-9v4zm1-4v3l15-8v-3z" class="svgShape color060606-252 selectable"/></g><use xlink:href="#k" fill="#2f2f2f" class="svgShape color2f2f2f-253 selectable"/><path fill="#060606" d="M623 496zl-15-9v-4l16 9zm-15-9 14 8v-3l-14-8z" class="svgShape color060606-254 selectable"/><path fill="#1b1b1b" d="M651 505h-5l-16-9v-2l16-9h5l15 9q3 1 0 2z" class="svgShape color1b1b1b-255 selectable"/><g fill="#060606"><path d="M648 506h-2l-16-9-1-1 1-3 16-9h5l15 9 1 1-1 3-15 9zm0-21h-2l-15 9a1 1 0 0 0 0 2l15 9h4l16-9h1a1 1 0 0 0 0-2h-1l-15-9z" class="svgShape color060606-257 selectable"/><path d="m666 496-15 9h-5l-16-9-1-1v4l1 1 16 9h5l15-9h1v-5z" class="svgShape color060606-258 selectable"/><path d="M648 510h-2l-16-9-1-1v-5h1v1h1l15 9h4l16-9 1-1h1v4l-1 1-1 1-15 9zm-18-14v4h1l15 9h5l15-9h1v-3h-1l-15 9h-5z" class="svgShape color060606-259 selectable"/><use xlink:href="#j" x="23" y="13" class="svgShape color060606-260 selectable"/><path d="M651 510zv-4h1l15-9h1v5h-1zm0-4v3l15-9v-3z" class="svgShape color060606-261 selectable"/></g><path fill="#2f2f2f" d="m630 500 16 9v-4l-16-9z" class="svgShape color2f2f2f-262 selectable"/><path fill="#060606" d="m646 510-16-9v-5h1l15 9zm-15-10 15 9v-3l-15-9z" class="svgShape color060606-263 selectable"/><path fill="#1b1b1b" d="M360 365h-5l-27-16v-3l16-9h5l27 16v3z" class="svgShape color1b1b1b-264 selectable"/><g fill="#060606"><path d="m358 366-3-1-27-16v-3l16-9 2-1 3 1 27 16h1v2l-1 1-16 9zm-12-29-2 1-15 9h-1v1l1 1 27 15h4l15-9h1v-1l-1-1-27-15z" class="svgShape color060606-266 selectable"/><path d="m376 356-16 9h-5l-27-16-1-1v4l1 1 27 16h5l16-9v-1l1-1v-4z" class="svgShape color060606-267 selectable"/><path d="m358 370-3-1-27-15-1-1v-6l1 1v1l28 15h4l15-9 1-1h1v6h-1l-16 9zm-30-21v4l28 15h4l15-9h1v-3l-16 9h-5z" class="svgShape color060606-268 selectable"/><use xlink:href="#e" x="-35" y="7" class="svgShape color060606-269 selectable"/><path d="M360 369v-5l15-9 1 1v4zm1-4v3l14-8v-4z" class="svgShape color060606-270 selectable"/></g><path fill="#2f2f2f" d="m328 353 27 16v-4l-27-16z" class="svgShape color2f2f2f-271 selectable"/><path fill="#060606" d="m355 369-27-15v-5h1l27 15v5zm-26-16 26 15v-3l-26-15z" class="svgShape color060606-272 selectable"/><path fill="#1b1b1b" d="m343 381-3 1-2-1-33-19v-2l16-9h4l33 19v2z" class="svgShape color1b1b1b-273 selectable"/><g fill="#060606"><path d="M340 382h-2l-33-19a2 2 0 0 1 0-4l15-9h6l32 19 1 3-1 1-15 9zm-17-31h-2l-16 9-1 1 1 1 33 19h4l16-9h1a1 1 0 0 0 0-2h-1l-33-19z" class="svgShape color060606-275 selectable"/><path d="m358 372-15 9h-5l-33-19h-1v-1 5l1 1 33 19h5l15-9 1-2v-4z" class="svgShape color060606-276 selectable"/><path d="m340 387-2-1-33-19-1-2v-4l1 1 33 19h4l16-9 1-1h1v4l-1 1-1 1-15 9zm-36-24v2l1 1 33 19h4l16-9 1-1v-2h-1l-15 9h-5z" class="svgShape color060606-277 selectable"/><path d="M343 381v5l15-9v-5z" class="svgShape color060606-278 selectable"/><path d="M343 386zv-5l16-9h1v5h-1zm0-4v3l15-9v-3z" class="svgShape color060606-279 selectable"/></g><path fill="#2f2f2f" d="m305 367 33 19v-5l-33-19z" class="svgShape color2f2f2f-280 selectable"/><path fill="#060606" d="m338 386-33-19v-5l33 19zm-33-20 32 19v-3l-32-19z" class="svgShape color060606-281 selectable"/><path fill="#1b1b1b" d="M383 378h-4l-16-9v-3l16-9h4l16 9v3z" class="svgShape color1b1b1b-282 selectable"/><g fill="#060606"><path d="m381 379-3-1-15-8-1-1v-2l1-1 15-9 3-1 3 1 15 9 1 1v2l-1 1-15 8zm0-22-2 1-16 9v2l16 9h4l16-9v-2l-16-9z" class="svgShape color060606-284 selectable"/><path d="m399 369-16 9h-4l-16-9h-1v-1 4l1 1 16 9 2 1 2-1 16-9h1v-5z" class="svgShape color060606-285 selectable"/><path d="M381 383h-3l-15-9-1-1v-6l1 1v1l16 9h4l16-9v-1l1-1v5l-1 2-15 9zm-18-14v4l16 9h4l16-9v-4 1l-15 8h-6z" class="svgShape color060606-286 selectable"/><use xlink:href="#e" x="-12" y="20" class="svgShape color060606-287 selectable"/><path d="M383 383zv-4l16-9v5zm1-5v3l14-8v-3z" class="svgShape color060606-288 selectable"/></g><use xlink:href="#h" x="-105" y="-33" fill="#2f2f2f" class="svgShape color2f2f2f-289 selectable"/><path fill="#060606" d="M379 383zl-15-9v-5l16 9zm-15-10 14 8v-3l-14-8z" class="svgShape color060606-290 selectable"/><path fill="#1b1b1b" d="m407 391-3 1-2-1-16-8v-3l16-9h5l15 9v3z" class="svgShape color1b1b1b-291 selectable"/><g fill="#060606"><path d="M404 392h-2l-16-9-1-1v-2l1-1 16-9h5l15 9 2 2-2 2-15 9zm0-21h-2l-15 9-1 1v1h1l15 9h4l16-9h1v-1l-1-1-16-9z" class="svgShape color060606-293 selectable"/><path d="m422 383-15 8-3 1-2-1-16-8-1-2v4l1 1v1l16 9h5l15-9 1-1v-5 1z" class="svgShape color060606-294 selectable"/><path d="m404 397-2-1-16-9-1-1v-5h1l1 1 15 9 2 1 2-1 16-9 1-1h1v4l-1 1-1 1-15 9zm-18-14v3h1l15 9 2 1 2-1 16-9 1-1v-2h-1l-15 9h-5z" class="svgShape color060606-295 selectable"/><use xlink:href="#e" x="12" y="33" class="svgShape color060606-296 selectable"/><path d="M407 396zv-5l16-9h1v5h-1zm0-4v3l15-9v-3z" class="svgShape color060606-297 selectable"/></g><use xlink:href="#h" x="-81" y="-20" fill="#2f2f2f" class="svgShape color2f2f2f-298 selectable"/><path fill="#060606" d="m402 396-16-9v-5h1l15 9zm-15-10 14 9v-3l-14-9z" class="svgShape color060606-299 selectable"/><path fill="#1b1b1b" d="M430 405h-5l-15-9q-3-1 0-3l15-9h5l15 9q3 2 0 3z" class="svgShape color1b1b1b-300 selectable"/><g fill="#060606"><path d="m428 406-3-1-16-9v-3l16-9 3-1 2 1 16 9 1 2-1 1-16 9zm0-22-3 1-15 9h-1v1l1 1 15 8h5l15-8 1-1v-1h-1l-15-9z" class="svgShape color060606-302 selectable"/><path d="m445 396-15 9h-5l-15-9-1-1v4l1 1 15 9h5l15-9 1-1v-4z" class="svgShape color060606-303 selectable"/><path d="m428 410-3-1-16-9-1-1v-5h1v1l1 1 15 8h5l15-8 1-1h1v4l-1 1-16 9zm-19-14v3l1 1 15 9h5l15-9 1-1v-3l-16 9h-5z" class="svgShape color060606-304 selectable"/><use xlink:href="#e" x="35" y="47" class="svgShape color060606-305 selectable"/><path d="M430 409zv-4l1-1 15-8v-1l1 1v4zm0-4v3l15-8v-3z" class="svgShape color060606-306 selectable"/></g><use xlink:href="#f" x="35" y="47" fill="#2f2f2f" class="svgShape color2f2f2f-307 selectable"/><path fill="#060606" d="m425 409-16-9v-4l1-1v1l15 8 1 1zm-15-9 15 8v-3l-15-8z" class="svgShape color060606-308 selectable"/><path fill="#1b1b1b" d="M453 418h-5l-15-9v-2l15-9h5l16 9v2z" class="svgShape color1b1b1b-309 selectable"/><g fill="#060606"><path d="M451 419h-3l-15-9-1-1 1-3 15-9h5l16 9 1 3-1 1-16 9zm0-22-2 1-16 9a1 1 0 0 0 0 2l16 9h4l15-9h1a1 1 0 0 0 0-2h-1l-15-9z" class="svgShape color060606-311 selectable"/><path d="m469 409-16 9h-5l-15-9-1-1v5h1l15 9 3 1 2-1 16-9 1-1v-4z" class="svgShape color060606-312 selectable"/><path d="M451 423h-3l-15-9-2-2v-4h1q1 0 0 0 1 0 0 0l1 1 16 9h4l15-9h1v-1h1v5l-1 1-16 9zm-19-14v3l1 1 16 9h4l15-9 1-1v-3 1l-16 9h-5z" class="svgShape color060606-313 selectable"/><use xlink:href="#e" x="58" y="60" class="svgShape color060606-314 selectable"/><path d="M453 423zv-4l15-9h1v5zm1-4v3l14-9v-3z" class="svgShape color060606-315 selectable"/></g><use xlink:href="#f" x="58" y="60" fill="#2f2f2f" class="svgShape color2f2f2f-316 selectable"/><path fill="#060606" d="m448 423-15-9-1-1v-4h1l16 9zm-15-10 15 9v-3l-15-9z" class="svgShape color060606-317 selectable"/><path fill="#1b1b1b" d="M476 432h-4l-16-9v-3l16-9h4l16 9v3z" class="svgShape color1b1b1b-318 selectable"/><g fill="#060606"><path d="m474 433-3-1-15-9-1-3h1l15-9 3-1 3 1 15 9 1 1-1 2-15 9zm0-22h-2l-16 9v2l16 9h4l16-9v-2l-16-9z" class="svgShape color060606-320 selectable"/><path d="m492 423-16 9h-4l-16-9-1-1v-1 5l1 1 16 9h4l16-9 1-1v-5z" class="svgShape color060606-321 selectable"/><path d="m474 437-3-1-15-9-1-2v-4h1v1l16 9h4l16-9v-1h1v5l-1 1-15 9zm-18-14v3l16 9h4l16-9v-3l-15 9h-6z" class="svgShape color060606-322 selectable"/><path d="M476 432v4l16-9v-4z" class="svgShape color060606-323 selectable"/><path d="M476 436v-5l16-9v5zm1-4v3l14-8v-4z" class="svgShape color060606-324 selectable"/></g><use xlink:href="#f" x="81" y="74" fill="#2f2f2f" class="svgShape color2f2f2f-325 selectable"/><path fill="#060606" d="M472 436zl-15-9v-5l16 9v5m-15-9 14 8v-3l-14-9z" class="svgShape color060606-326 selectable"/><path fill="#1b1b1b" d="m500 445-3 1-2-1-16-9v-3l16-9h5l15 9v3z" class="svgShape color1b1b1b-327 selectable"/><g fill="#060606"><path d="m497 446-2-1-16-9v-3l16-9h5l15 9v3l-15 9zm0-22-2 1-15 9a1 1 0 0 0 0 2l15 9h4l16-9a1 1 0 0 0 0-2l-16-9z" class="svgShape color060606-329 selectable"/><path d="m515 436-15 9-3 1-2-1-16-9-1-1v4l1 1 16 9h5l15-9 1-1v-4z" class="svgShape color060606-330 selectable"/><path d="M497 450h-2l-16-9-1-1v-6l1 1 1 1 15 9h4l16-9 1-1v-1l1 1v4l-2 2-15 9zm-18-14v3l1 1 15 9h4l16-9 1-1v-3h-1l-15 9h-5z" class="svgShape color060606-331 selectable"/><path d="M500 445v4l15-9v-4z" class="svgShape color060606-332 selectable"/><path d="M500 450zv-4l16-9h1v4l-1 1zm0-5v3l15-8v-3z" class="svgShape color060606-333 selectable"/></g><path fill="#2f2f2f" d="m479 440 16 9v-4l-16-9z" class="svgShape color2f2f2f-334 selectable"/><path fill="#060606" d="m495 450-16-9v-5h1l15 9zm-15-10 14 8v-3l-14-8z" class="svgShape color060606-335 selectable"/><use xlink:href="#i" x="-12" y="20" fill="#1b1b1b" class="svgShape color1b1b1b-336 selectable"/><g fill="#060606"><path d="M520 459h-2l-16-9-1-1 1-3 16-9h5l16 9 1 2-1 1v1l-16 9zm0-21h-2l-15 9h-1v2h1l15 9 2 1 3-1 15-9a1 1 0 0 0 1-2h-1l-15-9z" class="svgShape color060606-338 selectable"/><path d="m538 449-15 9h-5l-15-9h-1v-1 4l1 2 15 9h5l15-9 1-1v-5z" class="svgShape color060606-339 selectable"/><path d="m520 464-2-1-16-9v-1l-1-1v-4h1q1 0 0 0v1h1l15 9h5l15-9h1v-1h1v4l-1 1v1l-16 9zm-18-14v3h1l15 9h5l15-9h1v-3l-16 9h-5z" class="svgShape color060606-340 selectable"/><use xlink:href="#e" x="128" y="100" class="svgShape color060606-341 selectable"/><path d="M523 463zv-5h1l15-9h1v5zm0-4v3l15-9v-3z" class="svgShape color060606-342 selectable"/></g><use xlink:href="#h" x="35" y="47" fill="#2f2f2f" class="svgShape color2f2f2f-343 selectable"/><path fill="#060606" d="m518 463-16-9v-5h1l15 9h1zm-15-10 15 9v-3l-15-9z" class="svgShape color060606-344 selectable"/><path fill="#1b1b1b" d="M546 472h-5l-15-9v-3l15-9h5l16 9v3z" class="svgShape color1b1b1b-345 selectable"/><g fill="#060606"><path d="m544 473-3-1-15-9h-1l-1-1 1-2h1l15-9h5l16 9h1v2l-1 1-16 9zm0-22-2 1-16 8-1 1v1h1l16 9h4l15-9 1-1-1-1-15-8z" class="svgShape color060606-347 selectable"/><path d="m562 463-16 9h-5l-15-9-1-2v5l1 1 15 9h5l16-9 1-1v-5z" class="svgShape color060606-348 selectable"/><path d="m544 477-3-1-15-9h-1l-1-1v-4l1-1v1l1 1 16 8 2 1 2-1 15-8 1-1 1-1v6h-1l-16 9zm-19-14v3l1 1 16 9h4l15-9 1-1v-3l-16 9-2 1-3-1z" class="svgShape color060606-349 selectable"/><use xlink:href="#j" x="-81" y="-20" class="svgShape color060606-350 selectable"/><path d="M546 476v-5l15-9h1v5zm1-4v3l14-8v-3z" class="svgShape color060606-351 selectable"/></g><use xlink:href="#k" x="-81" y="-20" fill="#2f2f2f" class="svgShape color2f2f2f-352 selectable"/><path fill="#060606" d="m541 476-15-9h-1v-4l1-1 16 9v5zm-15-9 15 8v-3l-15-8z" class="svgShape color060606-353 selectable"/><path fill="#1b1b1b" d="M569 485h-4l-16-9v-2l16-9h4l16 9v2z" class="svgShape color1b1b1b-354 selectable"/><g fill="#060606"><path d="M567 486h-3l-15-9-1-1v-2l1-1 15-9h6l15 9 1 1v2l-1 1-15 9zm0-22-2 1-16 9a1 1 0 0 0 0 2l16 9h4l16-9v-2l-16-9z" class="svgShape color060606-356 selectable"/><path d="m585 476-16 9-2 1-2-1-16-9-1-1v4l1 1 16 9 2 1 2-1 16-9h1v-5z" class="svgShape color060606-357 selectable"/><path d="M567 490h-3l-15-9-1-2v-4h1v1l16 9h4l16-9v-1h1v5l-1 1-15 9zm-18-14v4l16 9h4l16-9v-4 1l-15 9h-6z" class="svgShape color060606-358 selectable"/><use xlink:href="#j" x="-58" y="-7" class="svgShape color060606-359 selectable"/><path d="M569 490zv-4l16-9v5zm1-5v4l14-9v-3z" class="svgShape color060606-360 selectable"/></g><use xlink:href="#k" x="-58" y="-7" fill="#2f2f2f" class="svgShape color2f2f2f-361 selectable"/><path fill="#060606" d="M565 490zl-15-9v-5l16 9zm-15-10 14 9v-4l-14-8z" class="svgShape color060606-362 selectable"/><path fill="#1b1b1b" d="M593 499h-5l-16-9v-3l16-9 2-1 3 1 15 9v3z" class="svgShape color1b1b1b-363 selectable"/><g fill="#060606"><path d="m590 500-2-1-16-9v-3l16-9h5l15 9h1v2l-1 1-15 9zm0-22h-2l-15 9-1 1v1h1l15 9 2 1 2-1 16-9v-2l-16-9z" class="svgShape color060606-365 selectable"/><path d="m608 490-15 9h-5l-16-9-1-2v4l1 1v1l16 9h5l15-9 1-2v-4z" class="svgShape color060606-366 selectable"/><path d="m590 504-2-1-16-9-1-1v-5h1l1 1 15 9h4l16-9 1-1h1v4l-1 1-1 1-15 9zm-18-14v3h1l15 9 2 1 2-1 16-9 1-1v-2h-1l-15 9-3 1-2-1z" class="svgShape color060606-367 selectable"/><path d="M593 499v4l15-9v-4z" class="svgShape color060606-368 selectable"/><path d="M593 503zv-5l16-9 1 1v4h-1q-1 0 0 0zm0-4v3l15-8v-4z" class="svgShape color060606-369 selectable"/></g><path fill="#2f2f2f" d="m572 494 16 9v-4l-16-9z" class="svgShape color2f2f2f-370 selectable"/><path fill="#060606" d="m588 503-16-9v-5h1l15 9v5m-15-9 14 8v-3l-14-9z" class="svgShape color060606-371 selectable"/><path fill="#1b1b1b" d="m616 512-3 1-2-1-15-9q-3-2 0-3l15-9h5l15 9q3 2 0 3z" class="svgShape color1b1b1b-372 selectable"/><g fill="#060606"><path d="m613 513-2-1-16-9h-1l1-3 16-9h5l16 9v1l1 1-1 1-16 9zm0-22-2 1-15 9h-1v1l1 1 15 9h5l15-9 1-1v-1h-1l-15-9z" class="svgShape color060606-374 selectable"/><path d="m631 503-15 9-3 1-2-1-15-9-1-1v5h1l15 9 2 1 3-1 15-9h1v-5z" class="svgShape color060606-375 selectable"/><path d="M613 517h-2l-16-9-1-2v-5h1v1l1 1 15 9h5l15-9 1-1v-1l1 1v4l-1 1v1l-16 9zm-18-14v3l1 1 15 9h5l15-9 1-1v-3l-16 9h-5z" class="svgShape color060606-376 selectable"/><use xlink:href="#e" x="221" y="154" class="svgShape color060606-377 selectable"/><path d="M616 517zq-1 0 0 0v-4h1l15-9h1v5zm0-5v3l15-8v-3z" class="svgShape color060606-378 selectable"/></g><use xlink:href="#h" x="128" y="100" fill="#2f2f2f" class="svgShape color2f2f2f-379 selectable"/><path fill="#060606" d="M611 517zl-16-8v-5h1l15 9h1zm-15-10 15 8v-3l-15-8z" class="svgShape color060606-380 selectable"/><path fill="#1b1b1b" d="M366 395h-5l-15-9q-3-1 0-3l15-9h5l15 9q3 2 0 3z" class="svgShape color1b1b1b-381 selectable"/><g fill="#060606"><path d="m364 396-3-1-16-9v-3l16-9 3-1 2 1 16 9 1 1-1 2-16 9zm0-22-3 1-15 8-1 1v1h1l15 9 2 1 3-1 15-9h1v-1l-1-1-15-8z" class="svgShape color060606-383 selectable"/><path d="m381 386-15 9h-5l-15-9-1-2v5l1 1 15 9h5l15-9 1-1v-5 1z" class="svgShape color060606-384 selectable"/><path d="m364 400-3-1-16-9-1-1v-5h1v1h1l15 9h5l15-9 1-1h1v5l-1 1-16 9zm-19-14v3l1 1 15 9h5l15-9 1-1v-3l-16 9-2 1-3-1z" class="svgShape color060606-385 selectable"/><path d="M366 395v4l15-9v-4z" class="svgShape color060606-386 selectable"/><path d="M366 399zv-4h1v-1l15-9 1 1v4zm0-4v3l15-8v-3z" class="svgShape color060606-387 selectable"/></g><path fill="#2f2f2f" d="m346 390 15 9v-4l-15-9z" class="svgShape color2f2f2f-388 selectable"/><path fill="#060606" d="m361 399-16-9v-5h1l15 9 1 1zm-15-9 15 8v-3l-15-8z" class="svgShape color060606-389 selectable"/><use xlink:href="#l" fill="#1b1b1b" class="svgShape color1b1b1b-390 selectable"/><g fill="#060606"><path d="M387 409h-3l-15-9a2 2 0 0 1 0-4l15-9h5l16 9 1 1v2l-1 1-16 9zm0-22-2 1-16 9-1 1h1v1l16 9h4l15-9 1-1v-1h-1l-15-9z" class="svgShape color060606-392 selectable"/><path d="m405 399-16 9h-5l-15-9-1-1v4l1 1 15 9 3 1 2-1 16-9 1-1v-4z" class="svgShape color060606-393 selectable"/><path d="M387 413h-3l-15-9-1-1-1-1v-4h2v1l16 9h4l15-9 1-1h1v5l-1 1-16 9zm-19-14v3l1 1 16 9h4l15-9h1v-4 1l-16 9h-5z" class="svgShape color060606-394 selectable"/><path d="M389 408v4l16-9v-4z" class="svgShape color060606-395 selectable"/><path d="M389 413zv-4l15-9h1v5zm1-5v4l14-9v-3z" class="svgShape color060606-396 selectable"/></g><use xlink:href="#m" fill="#2f2f2f" class="svgShape color2f2f2f-397 selectable"/><path fill="#060606" d="m384 413-15-9h-1v-5h1l16 9zm-15-10 15 9v-4l-15-8z" class="svgShape color060606-398 selectable"/><path fill="#1b1b1b" d="M412 422h-4l-16-9v-3l16-9h4l16 9v3z" class="svgShape color1b1b1b-399 selectable"/><g fill="#060606"><path d="m410 423-3-1-15-9-1-1 1-3 15-8h6l15 8 1 3-1 1-15 9zm0-22h-2l-16 9v2l16 9 2 1 2-1 16-9v-2l-16-9z" class="svgShape color060606-401 selectable"/><path d="m428 413-16 9h-4l-16-9-1-2v4l1 2 16 9h4l16-9 1-2v-4z" class="svgShape color060606-402 selectable"/><path d="m410 427-3-1-15-9-1-1v-5h1v1l16 9h4l16-9v-1h1v5l-1 1-15 9zm-18-14v3l16 9 2 1 2-1 16-9v-3l-15 9h-6z" class="svgShape color060606-403 selectable"/><path d="M412 422v4l16-9v-4z" class="svgShape color060606-404 selectable"/><path d="M412 426v-5l16-9v5zm1-4v3l14-9v-3z" class="svgShape color060606-405 selectable"/></g><path fill="#2f2f2f" d="m392 417 16 9v-4l-16-9z" class="svgShape color2f2f2f-406 selectable"/><path fill="#060606" d="M408 426zl-15-9v-5l16 9v5m-15-9 14 8v-3l-14-9z" class="svgShape color060606-407 selectable"/><path fill="#1b1b1b" d="m436 435-3 1-2-1-16-9v-3l16-9h5l15 9v3z" class="svgShape color1b1b1b-408 selectable"/><g fill="#060606"><path d="m433 436-2-1-16-9h-1l1-3 16-9h5l15 9 1 3h-1l-15 9zm0-22-2 1-15 9-1 1 1 1 15 9h4l16-9v-2l-16-9z" class="svgShape color060606-410 selectable"/><path d="m451 426-15 9h-5l-16-9v-1h-1v4l1 1 16 9h5l15-9h1v-5z" class="svgShape color060606-411 selectable"/><path d="m433 440-2-1-16-8-1-1v-6l1 1 1 1 15 9h4l16-9v-1h1v-1l1 1v4l-1 1-1 1-15 8zm-18-14v3l1 1 15 9h4l16-9v-1h1v-3h-1l-15 9-3 1-2-1z" class="svgShape color060606-412 selectable"/><path d="M436 435v4l15-9v-4z" class="svgShape color060606-413 selectable"/><path d="M436 440zv-4l16-9h1v4l-1 1zm0-5v3l15-8v-3z" class="svgShape color060606-414 selectable"/></g><path fill="#2f2f2f" d="m415 430 16 9v-4l-16-9z" class="svgShape color2f2f2f-415 selectable"/><path fill="#060606" d="M431 440zl-16-8v-5h1l15 9zm-15-10 14 8v-3l-14-8z" class="svgShape color060606-416 selectable"/><path fill="#1b1b1b" d="m459 448-3 1-2-1-15-9q-3-1 0-2l15-9 2-1 3 1 15 9q3 1 0 2z" class="svgShape color1b1b1b-417 selectable"/><g fill="#060606"><path d="M456 449h-2l-16-9-1-3 1-1 16-9h5l16 9v4l-16 9zm0-21h-2l-15 9h-1a1 1 0 0 0 0 2h1l15 9h5l15-9a1 1 0 0 0 1-2h-1l-15-9z" class="svgShape color060606-419 selectable"/><path d="m474 439-15 9-3 1-2-1-15-9h-1v-1 5l1 1 15 8 2 1 3-1 15-8 1-1v-5 1z" class="svgShape color060606-420 selectable"/><path d="M456 453h-2l-16-9v-1l-1-1v-4h1v1h1l15 9h5l15-9h1v-1h1v4l-1 1v1l-16 9zm-18-13v2l1 1 15 9h5l15-9 1-1v-2l-16 9h-5z" class="svgShape color060606-421 selectable"/><path d="M459 448v4l15-8v-5z" class="svgShape color060606-422 selectable"/><path d="M459 453zv-4h1l15-9h1v5zm0-4v3l15-9v-3z" class="svgShape color060606-423 selectable"/></g><path fill="#2f2f2f" d="m439 444 15 8v-4l-15-9z" class="svgShape color2f2f2f-424 selectable"/><path fill="#060606" d="m454 453-16-9v-5h1l15 9h1zm-15-10 15 9v-3l-15-9z" class="svgShape color060606-425 selectable"/><path fill="#1b1b1b" d="M482 462h-5l-15-9v-3l15-9h5l16 9v3z" class="svgShape color1b1b1b-426 selectable"/><g fill="#060606"><path d="m480 463-3-1-15-9-1-1v-2h1l15-9 3-1 2 1 16 9h1v2l-1 1-16 9zm0-22h-2l-16 9-1 1 1 1 16 9 2 1 2-1 15-9a1 1 0 0 0 0-2l-15-9z" class="svgShape color060606-428 selectable"/><path d="m498 453-16 9h-5l-15-9-1-1v-1 5l1 1 15 9h5l16-9 1-1v-5z" class="svgShape color060606-429 selectable"/><path d="m480 467-3-1-15-9h-1l-1-1v-5h1q1 0 0 0 1 0 0 0l1 1 16 9h4l15-9h1v-1h1v6h-1l-16 9zm-19-14v3l1 1 16 8h4l15-8 1-1v-3l-16 9h-5z" class="svgShape color060606-430 selectable"/><use xlink:href="#n" class="svgShape color060606-431 selectable"/><path d="M482 466v-5l15-9h1v5zm1-4v3l14-8v-3z" class="svgShape color060606-432 selectable"/></g><use xlink:href="#o" fill="#2f2f2f" class="svgShape color2f2f2f-433 selectable"/><path fill="#060606" d="m477 466-15-9h-1v-4l1-1 16 9v5zm-15-9 15 8v-3l-15-8z" class="svgShape color060606-434 selectable"/><path fill="#1b1b1b" d="M505 475h-4l-16-9v-3l16-9h4l16 9v3z" class="svgShape color1b1b1b-435 selectable"/><g fill="#060606"><path d="m503 476-3-1-15-8-1-3 1-1 15-9h6l15 9 1 3-1 1-15 8zm0-22-2 1-16 9v2l16 9h4l16-9v-2l-16-9z" class="svgShape color060606-437 selectable"/><path d="m521 466-16 9-2 1-2-1-16-9-1-1v4l1 1 16 9h4l16-9h1v-5z" class="svgShape color060606-438 selectable"/><path d="M503 480h-3l-15-9-1-2v-5l1 1v1l16 9h4l16-9v-1l1-1v6l-1 1-15 9zm-18-14v4l16 9h4l16-9v-4 1l-15 8-3 1-3-1z" class="svgShape color060606-439 selectable"/><use xlink:href="#n" x="23" y="13" class="svgShape color060606-440 selectable"/><path d="M505 480zq0-1 0 0v-4l16-9v5q0 1 0 0zm1-5v3l14-8v-3z" class="svgShape color060606-441 selectable"/></g><use xlink:href="#o" x="23" y="13" fill="#2f2f2f" class="svgShape color2f2f2f-442 selectable"/><path fill="#060606" d="M501 480zl-15-9v-5l16 9zq0 1 0 0m-15-10 14 9v-4l-14-8z" class="svgShape color060606-443 selectable"/><path fill="#1b1b1b" d="M529 489h-5l-16-9v-3l16-9h5l15 9v3z" class="svgShape color1b1b1b-444 selectable"/><g fill="#060606"><path d="m526 490-2-1-16-9a2 2 0 0 1 0-4l16-8h5l15 8 1 1v2l-1 1-15 9zm0-22h-2l-15 9-1 1 1 1 15 9h4l16-9v-2l-16-9z" class="svgShape color060606-446 selectable"/><path d="m544 480-15 9h-5l-16-9v-1l-1-1v4l1 1v1l16 9h5l15-9 1-1v-5z" class="svgShape color060606-447 selectable"/><path d="m526 494-2-1-16-9-1-2v-4h1l1 1 15 9h4l16-9 1-1h1v4l-2 2-15 9zm-18-14v3h1l15 9 2 1 2-1 16-9 1-1v-2h-1l-15 9h-5z" class="svgShape color060606-448 selectable"/><path d="M529 489v4l15-9v-4z" class="svgShape color060606-449 selectable"/><path d="M529 493zv-5l16-9 1 1v4h-1zm0-4v3l15-9v-3z" class="svgShape color060606-450 selectable"/></g><path fill="#1b1b1b" d="m508 484 16 9v-4l-16-9z" class="svgShape color1b1b1b-451 selectable"/><path fill="#060606" d="m524 493-16-9v-5h1l15 9v5m-15-10 14 9v-3l-14-9z" class="svgShape color060606-452 selectable"/><path fill="#1b1b1b" d="M552 502h-5l-15-9q-3-1 0-3l15-9h5l15 9q3 1 0 3z" class="svgShape color1b1b1b-453 selectable"/><g fill="#060606"><path d="m549 503-2-1-16-9h-1l1-3 16-9h5l16 9v1l1 1-1 1-16 9zm0-22-2 1-15 9h-1v1l1 1 15 9h5l15-9 1-1v-1h-1l-15-9z" class="svgShape color060606-455 selectable"/><path d="m567 493-15 9h-5l-15-9-1-1v5h1l15 9h5l15-9h1v-5z" class="svgShape color060606-456 selectable"/><path d="m549 507-2-1-16-9-1-1v-4l1-1v1l1 1 15 9h5l15-9 1-1v-1l1 1v4l-1 1-16 9zm-18-14v3l1 1 15 9h5l15-9 1-1v-3l-16 9h-5z" class="svgShape color060606-457 selectable"/><path d="M552 502v4l15-9v-4z" class="svgShape color060606-458 selectable"/><path d="M552 506zv-4h1l15-9h1v4zm0-4v3l15-8v-3z" class="svgShape color060606-459 selectable"/></g><path fill="#1b1b1b" d="m532 497 15 9v-4l-15-9z" class="svgShape color1b1b1b-460 selectable"/><path fill="#060606" d="m547 506-16-9v-4h1l15 9h1zm-15-9 15 8v-3l-15-8z" class="svgShape color060606-461 selectable"/><path fill="#1b1b1b" d="M575 515h-5l-15-9q-3-1 0-2l15-9h5l16 9v2z" class="svgShape color1b1b1b-462 selectable"/><g fill="#060606"><path d="M573 516h-3l-15-9-1-3 1-1 15-9h5l16 9 1 1v2l-1 1-16 9zm0-21h-2l-16 9h-1v2h1l16 9h4l15-9h1a1 1 0 0 0 0-2h-1l-15-9z" class="svgShape color060606-464 selectable"/><path d="m591 506-16 9h-5l-15-9h-1v-1 5h1l15 9 3 1 2-1 16-9 1-1v-4z" class="svgShape color060606-465 selectable"/><path d="M573 520h-3l-15-9-2-2v-4h1l1 1 16 9h4l15-9h1v-1h1v4l-1 2-16 9zm-19-14v3l1 1 16 9h4l15-9 1-1v-2l-16 9h-5z" class="svgShape color060606-466 selectable"/><path d="M575 515v4l16-9v-4z" class="svgShape color060606-467 selectable"/><path d="M575 520zv-4l15-9h1v5zm1-4v3l14-9v-3z" class="svgShape color060606-468 selectable"/></g><use xlink:href="#g" x="110" y="117" fill="#2f2f2f" class="svgShape color2f2f2f-469 selectable"/><path fill="#060606" d="m570 520-15-9-1-1v-4h1l16 9zm-15-10 15 9v-3l-15-9z" class="svgShape color060606-470 selectable"/><g fill="#1b1b1b"><use xlink:href="#p" class="svgShape color1b1b1b-472 selectable"/><use xlink:href="#p" class="svgShape color1b1b1b-473 selectable"/></g><g fill="#060606"><path d="m596 530-3-1-15-9-1-1v-2h1l15-9h6l15 9h1v2l-1 1-15 9zm0-22h-2l-16 9a1 1 0 0 0 0 2l16 9h4l16-9a1 1 0 0 0 0-2l-16-9z" class="svgShape color060606-475 selectable"/><path d="m614 520-16 9h-4l-16-9-1-2v5l1 1 16 9h4l16-9 1-1v-5z" class="svgShape color060606-476 selectable"/><path d="m596 534-3-1-15-9h-1v-6l1 1 16 9h4l16-9v-1h1v6h-1l-15 9zm-18-14v3l16 9h4l16-9v-3l-15 9h-6z" class="svgShape color060606-477 selectable"/><path d="M598 529v4l16-9v-4z" class="svgShape color060606-478 selectable"/><path d="M598 533v-5q0-1 0 0l16-9v5zm1-4v3l14-8v-4z" class="svgShape color060606-479 selectable"/></g><use xlink:href="#h" x="110" y="117" fill="#2f2f2f" class="svgShape color2f2f2f-480 selectable"/><path fill="#060606" d="M594 533zl-15-9v-5l16 9v5m-15-9 14 8v-3l-14-9z" class="svgShape color060606-481 selectable"/><path fill="#1b1b1b" d="m308 388-3 1-2-1-21-12q-3-2 0-3l15-9h5l21 12q3 2 0 3z" class="svgShape color1b1b1b-482 selectable"/><g fill="#060606"><path d="m305 389-2-1-21-12h-1v-3h1l15-9h5l22 12v4l-16 8zm-5-25-2 1-16 8a1 1 0 0 0 0 2l21 13h5l15-9 1-1v-1h-1l-21-12z" class="svgShape color060606-484 selectable"/><path d="m323 379-15 9h-5l-21-12-1-2v5l1 1 21 12h5l15-9h1v-5 1z" class="svgShape color060606-485 selectable"/><path d="M305 393h-2l-21-13-2-1v-5h1v1h1l21 13h5l15-9 1-1v-1h1v5l-1 1v1l-16 9zm-24-17v3l1 1 21 12h5l15-9 1-1v-3l-16 9-3 1-2-1z" class="svgShape color060606-486 selectable"/><path d="M308 388v4l15-9v-4z" class="svgShape color060606-487 selectable"/><path d="M308 393zv-4h1l15-9h1v5zm0-5v3l15-8v-3z" class="svgShape color060606-488 selectable"/></g><path fill="#1b1b1b" d="m282 380 21 12v-4l-21-12z" class="svgShape color1b1b1b-489 selectable"/><path fill="#060606" d="m303 393-21-13h-1v-4l1-1 21 13zm-21-13 21 11v-3l-21-11z" class="svgShape color060606-490 selectable"/><path fill="#1b1b1b" d="M279 398h-5l-15-9q-3-1 0-3l15-8h5l15 8q3 2 0 3z" class="svgShape color1b1b1b-491 selectable"/><g fill="#060606"><path d="M276 399h-2l-16-9-1-3 1-1 16-9h5l16 9v4l-16 9zm0-22-2 1-15 9h-1v1l1 1 15 9h5l15-9a1 1 0 0 0 0-2l-15-9z" class="svgShape color060606-493 selectable"/><path d="m294 389-15 9-3 1-2-1-15-9h-1v-1 5h1l15 9 2 1 3-1 15-9h1v-5 1z" class="svgShape color060606-494 selectable"/><path d="M276 403h-2l-16-9-1-2v-4h1l1 1 15 9h5l15-9 1-1v-1l1 1v4l-1 2-16 9zm-18-14v3l1 1 15 9h5l15-9h1v-4 1l-16 9h-5z" class="svgShape color060606-495 selectable"/><path d="M279 398v4l15-9v-4z" class="svgShape color060606-496 selectable"/><path d="M279 403zv-4h1l15-9h1v5zm0-5v4l15-9v-3z" class="svgShape color060606-497 selectable"/></g><use xlink:href="#g" x="-186" fill="#1b1b1b" class="svgShape color1b1b1b-498 selectable"/><path fill="#060606" d="m274 403-16-9v-5h1l15 9h1zm-15-10 15 9v-4l-15-8z" class="svgShape color060606-499 selectable"/><path fill="#1b1b1b" d="m331 401-2 1-3-1-15-8q-3-2 0-3l15-9 3-1 2 1 16 9v3z" class="svgShape color1b1b1b-500 selectable"/><g fill="#060606"><path d="M329 402h-3l-15-9-1-1v-2l1-1 15-9h5l16 9a2 2 0 0 1 0 4l-16 9zm0-21h-3l-15 9-1 1v1h1l15 9h5l15-9a1 1 0 0 0 0-2l-15-9z" class="svgShape color060606-502 selectable"/><path d="m347 393-16 8h-5l-15-8-1-2v5l1 1 15 9h5l16-9v-1l1-1v-4z" class="svgShape color060606-503 selectable"/><path d="m329 407-3-1-15-9-2-2v-4h1l1 1 15 9h5l15-9h1v-1h1v5l-1 1-16 9zm-19-14v2l1 1 15 9 3 1 2-1 15-9h1v-3l-16 9h-5z" class="svgShape color060606-504 selectable"/><path d="M331 401v5l16-9v-4z" class="svgShape color060606-505 selectable"/><path d="M331 406v-5l15-9h1v5zm0-4v3l15-9v-3z" class="svgShape color060606-506 selectable"/></g><path fill="#1b1b1b" d="m311 397 15 9v-5l-15-8z" class="svgShape color1b1b1b-507 selectable"/><path fill="#060606" d="m326 406-15-9h-1v-5h1l15 9h1zm-15-10 15 9v-3l-15-9z" class="svgShape color060606-508 selectable"/><path fill="#1b1b1b" d="M354 415h-4l-16-9v-3l16-9h4l16 9v3z" class="svgShape color1b1b1b-509 selectable"/><g fill="#060606"><path d="m352 416-3-1-15-9h-1v-3h1l15-9h6l15 9v3l-15 9zm0-22-2 1-16 9v2l16 8h4l16-8v-2l-16-9z" class="svgShape color060606-511 selectable"/><path d="m370 406-16 9h-4l-16-9-1-1v4l1 1 16 9 2 1 2-1 16-9 1-1v-4z" class="svgShape color060606-512 selectable"/><path d="m352 420-3-1-15-9h-1v-6 1h1v1l16 8 2 1 2-1 16-8v-1l1-1v5l-1 1-15 9zm-19-14v3h1v1l16 9h4l16-9v-4l-15 9h-6z" class="svgShape color060606-513 selectable"/><use xlink:href="#j" x="-273" y="-77" class="svgShape color060606-514 selectable"/><path d="M354 419v-4l16-9v4zm1-4v3l14-8v-3z" class="svgShape color060606-515 selectable"/></g><use xlink:href="#k" x="-273" y="-77" fill="#2f2f2f" class="svgShape color2f2f2f-516 selectable"/><path fill="#060606" d="M350 419zl-15-9v-4l16 9zm-16-9 15 8v-3l-15-8z" class="svgShape color060606-517 selectable"/><path fill="#1b1b1b" d="M378 428h-5l-16-9v-2l16-9h5l15 9v2z" class="svgShape color1b1b1b-518 selectable"/><g fill="#060606"><path d="M375 429h-2l-16-9-1-1v-1l1-2 16-9h5l15 9 1 1-1 3-15 9zm0-22-2 1-16 9a1 1 0 0 0 0 2l16 9h4l16-9a1 1 0 0 0 0-2l-16-9z" class="svgShape color060606-520 selectable"/><path d="m393 419-15 9h-5l-16-9-1-1v4l1 1 16 9h5l15-9h1v-5z" class="svgShape color060606-521 selectable"/><path d="M375 433h-2l-16-9-1-2v-4h1v1l16 9h4l16-9 1-1v5l-1 1-15 9zm-18-14v4l16 9h4l16-9 1-1v-3l-1 1-15 9h-5z" class="svgShape color060606-522 selectable"/><path d="M378 428v4l15-9v-4z" class="svgShape color060606-523 selectable"/><path d="M378 433zv-4l16-9v5zm0-4v3l15-9v-3z" class="svgShape color060606-524 selectable"/></g><path fill="#2f2f2f" d="m357 423 16 9v-4l-16-9z" class="svgShape color2f2f2f-525 selectable"/><path fill="#060606" d="m373 433-16-9v-5l16 9zm-15-10 14 9v-3l-14-9z" class="svgShape color060606-526 selectable"/><path fill="#1b1b1b" d="M401 442h-5l-15-9q-3-2 0-3l15-9h5l15 9q3 1 0 3z" class="svgShape color1b1b1b-527 selectable"/><g fill="#060606"><path d="m398 443-2-1-16-9v-3l16-9h5l16 9v3l-16 9zm0-22h-2l-15 9-1 1v1h1l15 9h5l15-9 1-1-1-1-15-9z" class="svgShape color060606-529 selectable"/><path d="m416 433-15 9h-5l-15-9-1-2v4l1 2 15 9h5l15-9 1-1v-5z" class="svgShape color060606-530 selectable"/><path d="m398 447-2-1-16-9h-1v-6h1v1h1l15 9 2 1 3-1 15-9h1v-1h1v4l-1 2h-1l-15 9zm-18-14v2l1 1 15 9h5l15-9 1-1v-2l-16 9h-5z" class="svgShape color060606-531 selectable"/><path d="M401 442v4l15-9v-4z" class="svgShape color060606-532 selectable"/><path d="M401 446zv-5h1l15-9h1v5zm0-4v3l15-8v-4z" class="svgShape color060606-533 selectable"/></g><path fill="#2f2f2f" d="m381 437 15 9v-4l-15-9z" class="svgShape color2f2f2f-534 selectable"/><path fill="#060606" d="m396 446-16-9v-5h1l15 9v5m-15-9 15 8v-3l-15-9z" class="svgShape color060606-535 selectable"/><path fill="#1b1b1b" d="M424 455h-5l-15-9q-3-2 0-3l15-9h5l16 9v3z" class="svgShape color1b1b1b-536 selectable"/><g fill="#060606"><path d="m422 456-3-1-15-9h-1v-2l1-1 15-9h5l16 9v3l-16 9zm0-22-3 1-15 9h-1v1l1 1 15 9h5l15-9 1-1v-1h-1l-15-9z" class="svgShape color060606-538 selectable"/><path d="m440 446-16 9h-5l-15-9-1-1v5h1l15 9h5l16-9 1-1v-4z" class="svgShape color060606-539 selectable"/><path d="M422 460h-3l-15-9-1-1-1-1v-5h1v1l1 1 15 9h5l15-9 1-1v-1h1v6l-1 1-16 9zm-19-14v3l1 1 15 9h5l15-9 1-1v-3l-16 9h-5z" class="svgShape color060606-540 selectable"/><path d="M424 455v4l16-9v-4z" class="svgShape color060606-541 selectable"/><path d="M424 460zv-4l15-9h1v5zm0-5v3l15-8v-3z" class="svgShape color060606-542 selectable"/></g><use xlink:href="#m" x="35" y="47" fill="#2f2f2f" class="svgShape color2f2f2f-543 selectable"/><path fill="#060606" d="m419 460-15-9-1-1v-4h1l15 9h1zm-15-10 15 8v-3l-15-8z" class="svgShape color060606-544 selectable"/><path fill="#1b1b1b" d="M447 468h-4l-16-8v-3l16-9 2-1 2 1 16 9v3z" class="svgShape color1b1b1b-545 selectable"/><g fill="#060606"><path d="M445 469h-3l-15-9-1-1v-2l1-1 15-9h5l16 9 1 1v2l-1 1-16 9zm0-21h-2l-16 9a1 1 0 0 0 0 2l16 9h4l16-9a1 1 0 0 0 0-2l-16-9z" class="svgShape color060606-547 selectable"/><path d="m463 459-16 9-2 1-2-1-16-9-1-1v4l1 2 16 9h4l16-9v-1l1-1z" class="svgShape color060606-548 selectable"/><path d="m445 474-3-1-15-9-1-2v-4l1 1 16 9h4l16-9v-1h1v5l-1 1-16 9zm-19-14v2l1 1 16 9h4l16-9v-3l-16 9h-5z" class="svgShape color060606-549 selectable"/><path d="M447 468v5l16-9v-5z" class="svgShape color060606-550 selectable"/><path d="M447 473v-5l16-9v5zm1-4v3l14-9v-3z" class="svgShape color060606-551 selectable"/></g><path fill="#2f2f2f" d="m427 464 15 9v-5l-15-9z" class="svgShape color2f2f2f-552 selectable"/><path fill="#060606" d="M443 473zl-15-9v-5l16 9zm-16-10 15 9v-3l-15-9z" class="svgShape color060606-553 selectable"/><use xlink:href="#l" x="81" y="74" fill="#1b1b1b" class="svgShape color1b1b1b-554 selectable"/><g fill="#060606"><path d="m468 483-2-1-16-9v-3l16-9h5l15 9v3l-15 9zm0-22-2 1-16 9v2l16 8 2 1 2-1 16-8v-1h1l-1-1-16-9z" class="svgShape color060606-556 selectable"/><path d="m486 473-15 9h-5l-16-9v-1h-1v4h1v1l16 9 2 1 3-1 15-9 1-1v-4z" class="svgShape color060606-557 selectable"/><path d="m468 487-2-1-16-9h-1v-6h1v1l16 9h4l16-9 1-1v6h-1l-15 9zm-18-14v4l16 9h4l16-9v-1h1v-3h-1l-15 9h-5z" class="svgShape color060606-558 selectable"/><path d="M471 482v4l15-9v-4z" class="svgShape color060606-559 selectable"/><path d="M471 486zv-5l16-9v5zm0-4v3l15-8v-3z" class="svgShape color060606-560 selectable"/></g><use xlink:href="#m" x="81" y="74" fill="#2f2f2f" class="svgShape color2f2f2f-561 selectable"/><path fill="#060606" d="m466 486-16-9v-5l16 9v5m-15-9 14 8v-3l-14-8z" class="svgShape color060606-562 selectable"/><use xlink:href="#l" x="105" y="87" fill="#1b1b1b" class="svgShape color1b1b1b-563 selectable"/><g fill="#060606"><path d="M491 496h-2l-16-9-1-1v-2l1-1 16-9h5l15 9 1 1v2l-1 1-15 9zm0-22-2 1-15 9h-1v2h1l15 9h5l15-9h1a1 1 0 0 0-1-2l-15-9z" class="svgShape color060606-565 selectable"/><path d="m509 486-15 9h-5l-16-9-1-1v4l1 1 16 9h5l15-9 1-1v-4z" class="svgShape color060606-566 selectable"/><path d="M491 500h-2l-16-9-1-1v-5h1v1h1l15 9h5l15-9 1-1h1v4l-2 2-15 9zm-18-14v4h1l15 9h5l15-9h1v-4l-1 1-15 9h-5z" class="svgShape color060606-567 selectable"/><path d="M494 495v4l15-9v-4z" class="svgShape color060606-568 selectable"/><path d="M494 500zv-4h1l15-9h1v4l-1 1zm0-5v4l15-9v-3z" class="svgShape color060606-569 selectable"/></g><path fill="#2f2f2f" d="m473 490 16 9v-4l-16-9z" class="svgShape color2f2f2f-570 selectable"/><path fill="#060606" d="m489 500-16-9v-5h1l15 9zm-15-10 15 9v-4l-15-8z" class="svgShape color060606-571 selectable"/><path fill="#1b1b1b" d="M517 509h-5l-15-9q-3-1 0-3l15-9h5l16 9v3z" class="svgShape color1b1b1b-572 selectable"/><g fill="#060606"><path d="m515 510-3-1-16-9v-3l16-9h5l16 9h1l-1 3-16 9zm0-22h-3l-15 9-1 1v1h1l15 9h5l15-9h1v-1l-1-1-15-9z" class="svgShape color060606-574 selectable"/><path d="m533 500-16 9h-5l-15-9-1-2v4l1 2 15 9h5l16-9 1-2v-4z" class="svgShape color060606-575 selectable"/><path d="m515 514-3-1-15-9-2-2v-4h1v1h1l15 9h5l15-9h1v-1h1v5l-1 1-16 9zm-19-14v3h1l15 9h5l15-9h1v-3l-16 9h-5z" class="svgShape color060606-576 selectable"/><path d="M517 509v4l16-9v-4z" class="svgShape color060606-577 selectable"/><path d="M517 513v-5l15-9h1v5zm0-4v3l15-8v-4z" class="svgShape color060606-578 selectable"/></g><path fill="#2f2f2f" d="m497 504 15 9v-4l-15-9z" class="svgShape color2f2f2f-579 selectable"/><path fill="#060606" d="m512 513-15-9h-1v-5h1q1 0 0 0l15 9 1 1zm-15-9 15 8v-3l-15-9z" class="svgShape color060606-580 selectable"/><path fill="#1b1b1b" d="m540 522-2 1-3-1-15-9v-3l15-9h5l16 9v3z" class="svgShape color1b1b1b-581 selectable"/><g fill="#060606"><path d="m538 523-3-1-15-9h-1v-2l1-1 15-9h5l16 9 1 1v2h-1l-16 9zm0-22-2 1-16 9a1 1 0 0 0 0 2l16 9h4l16-9a1 1 0 0 0 0-2l-16-9z" class="svgShape color060606-583 selectable"/><path d="m556 513-16 9-2 1-3-1-15-9-1-1v4l1 1 15 9 3 1 2-1 16-9 1-1v-4z" class="svgShape color060606-584 selectable"/><path d="M538 527h-3l-15-9-1-2v-5 1l1 1 16 9h4l16-9v-2h1v5l-1 2-16 9zm-19-14v3h1v1l16 9h4l16-9v-4l-16 9-2 1-3-1z" class="svgShape color060606-585 selectable"/><path d="M540 522v4l16-9v-4z" class="svgShape color060606-586 selectable"/><path d="M540 527zv-4l16-9v5zm1-5v3l14-8v-3z" class="svgShape color060606-587 selectable"/></g><path fill="#2f2f2f" d="m520 517 15 9v-4l-15-9z" class="svgShape color2f2f2f-588 selectable"/><path fill="#060606" d="m535 527-15-9v-5l16 9zm-15-10 15 8v-3l-15-8z" class="svgShape color060606-589 selectable"/><path fill="#1b1b1b" d="M564 535h-5l-16-9v-2l16-9h4l16 9v2z" class="svgShape color1b1b1b-590 selectable"/><g fill="#060606"><path d="M561 536h-3l-15-9a2 2 0 0 1 0-4l15-9h6l15 9a2 2 0 0 1 0 4l-15 9zm0-21h-2l-16 9v2l16 9h4l16-9 1-1-1-1-16-9z" class="svgShape color060606-592 selectable"/><path d="m579 526-15 9-3 1-2-1-16-9-1-1v4l1 2 16 9h4l16-9 1-1v-5z" class="svgShape color060606-593 selectable"/><path d="m561 541-2-1-16-9-1-1v-5h1v1l16 9h4l16-9 1-1v5l-1 1-15 9zm-18-14v3l16 9h4l16-9 1-1v-2h-1l-15 9h-5z" class="svgShape color060606-594 selectable"/><use xlink:href="#n" x="81" y="74" class="svgShape color060606-595 selectable"/><path d="M564 540zv-5l16-9v5zm0-4v3l15-9v-3z" class="svgShape color060606-596 selectable"/></g><use xlink:href="#o" x="81" y="74" fill="#2f2f2f" class="svgShape color2f2f2f-597 selectable"/><path fill="#060606" d="m559 540-16-9v-5l16 9zm-15-10 14 9v-3l-14-9z" class="svgShape color060606-598 selectable"/><path fill="#1b1b1b" d="M302 412h-5l-15-9q-3-2 0-3l15-9h5l16 9v3z" class="svgShape color1b1b1b-599 selectable"/><g fill="#060606"><path d="m300 413-3-1-15-9-1-1v-2h1l15-9h5l16 9v3l-16 9zm0-22h-2l-16 9-1 1v1h1l16 9h4l15-9 1-1-1-1-15-9z" class="svgShape color060606-601 selectable"/><path d="m318 403-16 9h-5l-15-9-1-2v5l1 1 15 9h5l16-9 1-2v-4z" class="svgShape color060606-602 selectable"/><path d="m300 417-3-1-15-9-1-1-1-1v-4h1l1 1 16 9h4l15-9 1-1h1v5l-1 1-16 9zm-19-14v2l1 1 16 9h4l15-9 1-1v-2l-16 9h-5z" class="svgShape color060606-603 selectable"/><use xlink:href="#e" x="-93" y="54" class="svgShape color060606-604 selectable"/><path d="M302 416v-5l15-9h1v5zm1-4v3l14-9v-3z" class="svgShape color060606-605 selectable"/></g><use xlink:href="#h" x="-186" fill="#1b1b1b" class="svgShape color1b1b1b-606 selectable"/><path fill="#060606" d="m297 416-15-9h-1v-4l1-1 16 9v5zm-15-9 15 8v-3l-15-9z" class="svgShape color060606-607 selectable"/><path fill="#1b1b1b" d="M325 425h-4l-16-9v-3l16-9h4l16 9v3z" class="svgShape color1b1b1b-608 selectable"/><g fill="#060606"><path d="m323 426-3-1-15-9h-1v-2l1-1 15-9 3-1 3 1 15 9 1 1v2h-1l-15 9zm0-22-2 1-16 9v2l16 9h4l16-9v-2l-16-9z" class="svgShape color060606-610 selectable"/><path d="m341 416-16 9-2 1-2-1-16-9-1-1v5h1l16 9h4l16-9h1v-5z" class="svgShape color060606-611 selectable"/><path d="m323 430-3-1-15-8-1-1v-6l1 1v1l16 9h4l16-9v-1l1-1q1 0 0 0v5l-1 2-15 8zm-19-14v3l1 1 16 9h4l16-9v-4l-15 9h-6z" class="svgShape color060606-612 selectable"/><use xlink:href="#e" x="-70" y="67" class="svgShape color060606-613 selectable"/><path d="M325 430zv-4l16-9v5zm1-5v3l14-8v-3z" class="svgShape color060606-614 selectable"/></g><use xlink:href="#h" x="-163" y="13" fill="#1b1b1b" class="svgShape color1b1b1b-615 selectable"/><path fill="#060606" d="M321 430zl-15-8v-5l16 9zm-16-10 15 8v-3l-15-8z" class="svgShape color060606-616 selectable"/><path fill="#1b1b1b" d="m686 525-3 1-2-1-27-15q-3-1 0-3l15-9h5l27 16v2z" class="svgShape color1b1b1b-617 selectable"/><g fill="#060606"><path d="M683 526h-2l-28-16v-3l16-9 3-1 2 1 27 15 1 1v2l-1 1-15 9zm-11-28h-3l-15 9-1 1v1h1l27 16h4l16-9 1-1-1-1-27-16z" class="svgShape color060606-619 selectable"/><path d="m701 516-15 9h-5l-27-15-1-1v-1 4l1 2 27 16h5l15-9 1-1v-5z" class="svgShape color060606-620 selectable"/><path d="m683 531-3-1-27-16-1-1v-5h1v1h1l27 16h4l16-9 1-1v5l-1 1-15 9zm-30-21v3l1 1 27 15h4l16-9 1-1v-2h-1l-15 9h-5z" class="svgShape color060606-621 selectable"/><path d="M686 525v5l15-9v-5z" class="svgShape color060606-622 selectable"/><path d="M686 530zv-5l16-9v5zm0-4v3l15-9v-3z" class="svgShape color060606-623 selectable"/></g><path fill="#2f2f2f" d="m654 514 27 16v-5l-27-15z" class="svgShape color2f2f2f-624 selectable"/><path fill="#060606" d="m681 530-28-16v-5h1l27 16zm-27-16 26 15v-3l-26-16z" class="svgShape color060606-625 selectable"/><path fill="#1b1b1b" d="M354 442h-4l-22-13v-2l16-9h5l21 12v3z" class="svgShape color1b1b1b-626 selectable"/><g fill="#060606"><path d="m352 443-3-1-21-12-1-1v-2l1-1 16-9h5l21 13 1 1v1l-1 1-15 9zm-6-25h-2l-15 9h-1v2h1l21 12h4l16-9a1 1 0 0 0 0-2l-22-12z" class="svgShape color060606-628 selectable"/><path d="m370 433-16 9h-4l-22-13-1-1v4l1 1v1l22 12h4l16-9 1-2v-4z" class="svgShape color060606-629 selectable"/><path d="m352 447-3-1-21-12-1-2v-4h1v1l22 12h4l16-9v-1h1v6h-1l-15 9zm-24-17v3l22 12 2 1 2-1 16-9v-3l-15 9h-6z" class="svgShape color060606-630 selectable"/><path d="M354 442v4l16-9v-4z" class="svgShape color060606-631 selectable"/><path d="M354 446v-5l16-9v5zm1-4v3l14-8v-4z" class="svgShape color060606-632 selectable"/></g><path fill="#1b1b1b" d="m328 434 22 12v-4l-22-13z" class="svgShape color1b1b1b-633 selectable"/><path fill="#060606" d="M350 446zl-21-12v-5h1l21 12v5m-21-13 20 12v-3l-20-12z" class="svgShape color060606-634 selectable"/><path fill="#1b1b1b" d="M639 525h-5l-15-9v-2l15-9h5l16 9v2z" class="svgShape color1b1b1b-635 selectable"/><g fill="#060606"><path d="M637 526h-3l-15-9-1-3 1-1 15-9h5l16 9 1 3-1 1-16 9zm0-21h-2l-16 9h-1a1 1 0 0 0 0 2h1l16 9h4l15-9h1a1 1 0 0 0 0-2h-1l-15-9z" class="svgShape color060606-637 selectable"/><path d="m655 516-16 9-2 1-3-1-15-9h-1v-1 4l1 2 15 9h5l16-9 1-2z" class="svgShape color060606-638 selectable"/><path d="m637 531-3-1-15-9-1-1-1-1v-4h1l1 1 16 9 2 1 2-1 15-9h1v-1h1v4l-1 2-16 9zm-19-14v2l1 1 16 9h4l15-9h1v-3l-16 9h-5z" class="svgShape color060606-639 selectable"/><use xlink:href="#e" x="244" y="167" class="svgShape color060606-640 selectable"/><path d="M639 530v-5l15-9h1v5zm1-4v3l14-9v-3z" class="svgShape color060606-641 selectable"/></g><use xlink:href="#h" x="151" y="114" fill="#2f2f2f" class="svgShape color2f2f2f-642 selectable"/><path fill="#060606" d="m634 530-15-9h-1v-5h1l16 9zm-15-10 15 9v-3l-15-9z" class="svgShape color060606-643 selectable"/><path fill="#1b1b1b" d="m622 542-3 1-2-1-16-9v-3l16-9h5l15 9v3z" class="svgShape color1b1b1b-644 selectable"/><g fill="#060606"><path d="m619 543-2-1-16-8-1-1v-2l1-1 16-9h5l15 9 1 1v2l-1 1-15 8zm0-22-2 1-15 9a1 1 0 0 0 0 2l15 9h4l16-9a1 1 0 0 0 0-2l-16-9z" class="svgShape color060606-646 selectable"/><path d="m637 533-15 9h-5l-16-9-1-1v4l1 1 16 9h5l15-9 1-1v-4z" class="svgShape color060606-647 selectable"/><path d="M619 547h-2l-16-9-1-2v-5l1 1 1 1 15 9h4l16-9v-1h1v-1l1 1v4l-1 1-1 1-15 9zm-18-14v3l1 1 15 9h4l16-9 1-1v-3l-1 1-15 8-3 1-2-1z" class="svgShape color060606-648 selectable"/><use xlink:href="#n" x="139" y="80" class="svgShape color060606-649 selectable"/><path d="M622 547zv-4l16-9h1v4l-1 1zm0-5v3l15-8v-3z" class="svgShape color060606-650 selectable"/></g><use xlink:href="#o" x="139" y="80" fill="#2f2f2f" class="svgShape color2f2f2f-651 selectable"/><path fill="#060606" d="m617 547-16-9v-5h1l15 9zm-15-10 14 8v-3l-14-8z" class="svgShape color060606-652 selectable"/><path fill="#1b1b1b" d="M470 509h-4l-109-63v-3l16-9h5l108 63v3z" class="svgShape color1b1b1b-653 selectable"/><g fill="#060606"><path d="m468 510-3-1-108-63h-1l1-3 16-9h5l108 63h1v2l-1 1-15 9zm-93-76-2 1-16 9a1 1 0 0 0 0 2l109 62h4l16-9v-2l-109-62z" class="svgShape color060606-655 selectable"/><path d="m486 500-16 9h-4l-109-63-1-1v4l1 1 109 63h4l16-9 1-1v-5z" class="svgShape color060606-656 selectable"/><path d="m468 514-3-1-108-62-1-1v-6h1v2l109 62h4l16-9 1-1v5l-1 1-15 9zm-111-68v4l109 62 2 1 2-1 16-9 1-1v-2h-1l-15 9h-6z" class="svgShape color060606-657 selectable"/><use xlink:href="#n" x="-12" y="47" class="svgShape color060606-658 selectable"/><path d="M470 513v-5l16-9v5zm1-4v3l15-8v-4z" class="svgShape color060606-659 selectable"/></g><path fill="#2f2f2f" d="m357 450 109 63v-4l-109-63z" class="svgShape color2f2f2f-660 selectable"/><path fill="#060606" d="M466 513zl-108-62v-5l109 62v5m-108-63 107 62v-3l-107-62z" class="svgShape color060606-661 selectable"/><path fill="#1b1b1b" d="m499 525-2 1-2-1-22-12v-3l16-9h5l21 13v2z" class="svgShape color1b1b1b-662 selectable"/><g fill="#060606"><path d="M497 526h-3l-21-13h-1v-2l1-1 16-9h5l21 12 1 2v1l-1 1-15 9zm-6-25-2 1-15 9-1 1 1 1 21 12h4l16-9 1-1-1-1-21-12z" class="svgShape color060606-664 selectable"/><path d="m515 516-16 9-2 1-2-1-22-12-1-1v4l1 1 22 12 2 1 2-1 16-9 1-1v-4z" class="svgShape color060606-665 selectable"/><path d="M497 530h-3l-21-12-1-1v-6h1v1l1 1 21 12h4l16-9 1-1v4l-1 2-15 9zm-24-17v3l1 1 21 12h4l16-9 1-1v-2h-1l-15 9h-6z" class="svgShape color060606-666 selectable"/><use xlink:href="#e" x="104" y="167" class="svgShape color060606-667 selectable"/><path d="M499 530zv-4l16-9v5zm1-4v3l15-9v-3z" class="svgShape color060606-668 selectable"/></g><path fill="#2f2f2f" d="m473 517 22 12v-4l-22-12z" class="svgShape color2f2f2f-669 selectable"/><path fill="#060606" d="M495 530zl-21-12v-5h1l21 12zm-21-13 20 12v-3l-20-12z" class="svgShape color060606-670 selectable"/><path fill="#1b1b1b" d="M523 539h-5l-15-9q-3-1 0-3l15-9h5l15 9q3 1 0 3z" class="svgShape color1b1b1b-671 selectable"/><g fill="#060606"><path d="m520 540-2-1-16-9h-1v-3h1l16-9 2-1 3 1 16 9v3l-16 9zm0-22-2 1-15 8-1 1v1h1l15 9h5l15-9h1v-1l-1-1-15-8z" class="svgShape color060606-673 selectable"/><path d="m538 530-15 9h-5l-15-9-1-2v5l1 1 15 9h5l15-9 1-1v-5z" class="svgShape color060606-674 selectable"/><path d="m520 544-2-1-16-9h-1v-6h1v1h1l15 9 2 1 3-1 15-9 1-1h1v5l-1 1-16 9zm-18-14v3l1 1 15 9h5l15-9 1-1v-3l-16 9h-5z" class="svgShape color060606-675 selectable"/><use xlink:href="#j" x="-105" y="47" class="svgShape color060606-676 selectable"/><path d="M523 543zv-4l1-1 15-9h1v5zm0-4v3l15-8v-3z" class="svgShape color060606-677 selectable"/></g><use xlink:href="#k" x="-105" y="47" fill="#2f2f2f" class="svgShape color2f2f2f-678 selectable"/><path fill="#060606" d="m518 543-16-9v-5h1l15 9v1h1zm-15-9 15 8v-3l-15-8z" class="svgShape color060606-679 selectable"/><path fill="#1b1b1b" d="M546 552h-5l-16-9v-3l6-3 2-1 3 1 15 9q3 1 0 3z" class="svgShape color1b1b1b-680 selectable"/><g fill="#060606"><path d="m543 553-2-1-16-9h-1v-2l1-1 6-3h5l15 9h1l1 1-1 1-1 1-5 3zm-10-16h-2l-5 4h-1v1l1 1 15 9h4l6-4h1v-1l-1-1-16-9z" class="svgShape color060606-682 selectable"/><path d="m551 549-5 3h-5l-16-9-1-1v4l1 1 16 9 2 1 3-1 5-3 1-1v-5z" class="svgShape color060606-683 selectable"/><path d="m543 557-2-1-16-9h-1v-6l1 1 1 1 15 9h4l6-4 1-1h1v4l-2 2-5 3zm-18-14v3l1 1 15 9h4l6-4 1-1v-2h-1l-5 3h-5z" class="svgShape color060606-684 selectable"/><path d="M546 552v4l5-3v-4z" class="svgShape color060606-685 selectable"/><path d="M546 556zv-4l6-4h1v5h-1zm0-4v3l5-2v-4z" class="svgShape color060606-686 selectable"/></g><use xlink:href="#k" x="-82" y="60" fill="#2f2f2f" class="svgShape color2f2f2f-687 selectable"/><path fill="#060606" d="m541 556-16-9v-4h1l15 9zm-15-9 14 8v-3l-14-8z" class="svgShape color060606-688 selectable"/><path fill="#1b1b1b" d="M644 531zl-1-1-1-1v-1 5l1 1 2 1v1z" class="svgShape color1b1b1b-689 selectable"/><g fill="#060606"><path d="M644 536zl-1-1-1-1v-5l1 1 1 1h1v1l1 1zm-2-2h2v-2l-1-1-1-1h-1v3z" class="svgShape color060606-691 selectable"/><path d="M644 531v5z" class="svgShape color060606-692 selectable"/><path d="M644 536zv-5h1a1 1 0 0 1 1 2z" class="svgShape color060606-693 selectable"/></g><path fill="#1b1b1b" d="M662 518h-5l-15 9v3l2 1-1 2-19 11v3l10 5h5l39-22v-3z" class="svgShape color1b1b1b-694 selectable"/><g fill="#060606"><path d="M637 553h-3l-10-6a2 2 0 0 1 0-4l19-10 1-1-1-1-1-1v-3l15-9h6l15 9v3l-39 23zm23-35-2 1-16 8-1 1 1 1 2 1a1 1 0 0 1 1 2l-2 2-18 10-1 1v1h1l9 6h5l39-23v-2l-16-8z" class="svgShape color060606-696 selectable"/><path d="m678 530-39 22-2 1-3-1-10-5v-1l-1-1v4l1 2 10 5 3 1 2-1 39-22v-1h1v-5z" class="svgShape color060606-697 selectable"/><path d="M637 557h-3l-10-6-1-1v-5h1v1h1l9 6h5l39-23v-1h1v5l-1 1-39 23zm-13-10v2l1 1 9 6h5l39-22v-4l-39 23h-5z" class="svgShape color060606-698 selectable"/><path d="M639 552v4l39-22v-4z" class="svgShape color060606-699 selectable"/><path d="M639 557zv-4l39-23v5zm0-5v4l38-22v-3z" class="svgShape color060606-700 selectable"/></g><path fill="#2f2f2f" d="M624 547v4l10 5v-4z" class="svgShape color2f2f2f-701 selectable"/><path fill="#060606" d="m634 557-10-6v-5h1l9 6h1zq-1 0 0 0m-9-7 9 6v-4l-9-5z" class="svgShape color060606-702 selectable"/><path fill="#1b1b1b" d="M616 566h-5l-45-26v-3l16-9h5l44 26q3 2 0 3z" class="svgShape color1b1b1b-703 selectable"/><g fill="#060606"><path d="m613 567-2-1-45-26h-1v-2l1-1 16-9 2-1 3 1 45 26v3l-16 9zm-29-39-2 1-15 8-1 1v1h1l44 26h5l15-9h1v-1l-1-1-45-25z" class="svgShape color060606-705 selectable"/><path d="m631 557-15 9h-5l-45-26-1-2v5l1 1 45 26h5l15-9 1-1v-5z" class="svgShape color060606-706 selectable"/><path d="m613 571-2-1-45-26h-1v-6h1l1 1 44 26h5l15-9h1v-1h1v4l-1 1v1l-16 9zm-47-31v3l1 1 44 25 2 1 3-1 15-9h1v-3l-16 9-3 1-2-1z" class="svgShape color060606-707 selectable"/><path d="M616 566v4l15-9v-4z" class="svgShape color060606-708 selectable"/><path d="M616 570zv-5h1l15-9h1v5zm0-4v3l15-8v-4z" class="svgShape color060606-709 selectable"/></g><path fill="#2f2f2f" d="m566 544 45 26v-4l-45-26z" class="svgShape color2f2f2f-710 selectable"/><path fill="#060606" d="m611 570-45-26v-5h1l44 26v5m-44-26 44 25v-3l-44-25z" class="svgShape color060606-711 selectable"/><path fill="#1b1b1b" d="M569 566h-4l-16-9v-3l16-9h4l16 9v3z" class="svgShape color1b1b1b-712 selectable"/><g fill="#060606"><path d="m567 567-3-1-15-9-1-1v-2l1-1 15-8h6l15 8 1 1v2l-1 1-15 9zm0-22h-2l-16 9v1h-1l1 1 16 9 2 1 2-1 16-9v-2l-16-9z" class="svgShape color060606-714 selectable"/><path d="m585 557-16 9h-4l-16-9-1-2v4l1 2 16 9h4l16-9 1-1v-5z" class="svgShape color060606-715 selectable"/><path d="m567 571-3-1-15-9-1-2v-4l1 1 16 9 2 1 2-1 16-9v-1h1v5l-1 1-15 9zm-19-14v2l1 1 16 9h4l16-9v-3l-15 9-3 1-3-1z" class="svgShape color060606-716 selectable"/><path d="M569 566v4l16-9v-4z" class="svgShape color060606-717 selectable"/><path d="M569 570v-5l16-9v5zm1-4v3l14-9v-3z" class="svgShape color060606-718 selectable"/></g><path fill="#2f2f2f" d="m549 561 16 9v-4l-16-9z" class="svgShape color2f2f2f-719 selectable"/><path fill="#060606" d="M565 570zl-15-9v-5l16 9v5m-16-9 15 8v-3l-15-9z" class="svgShape color060606-720 selectable"/><path fill="#1b1b1b" d="m593 579-3 1-2-1-16-9v-3l6-3 2-1 3 1 15 9v3z" class="svgShape color1b1b1b-721 selectable"/><g fill="#060606"><path d="m590 580-2-1-16-9h-1v-2l1-1 6-3h5l15 9h1v2l-1 1-5 3zm-10-16h-2l-6 4v2l16 9h4l6-4 1-1-1-1-16-9z" class="svgShape color060606-723 selectable"/><path d="m598 576-5 3h-5l-16-9-1-1v4l1 1 16 9 2 1 3-1 5-3 1-1v-5z" class="svgShape color060606-724 selectable"/><path d="m590 584-2-1-16-8-1-2v-5l1 1v1l16 9h4l6-4 1-1h1v4l-1 2h-1l-5 3zm-18-14v4l16 9h4l6-4 1-1v-2h-1l-5 3-3 1-2-1z" class="svgShape color060606-725 selectable"/><path d="M593 579v4l5-3v-4z" class="svgShape color060606-726 selectable"/><path d="M593 584zv-4l6-4 1 1v4h-1zm0-5v3l5-2v-4z" class="svgShape color060606-727 selectable"/></g><use xlink:href="#m" x="203" y="171" fill="#2f2f2f" class="svgShape color2f2f2f-728 selectable"/><path fill="#060606" d="M588 584zl-16-8v-5l16 9zm-15-10 14 8v-3l-14-8z" class="svgShape color060606-729 selectable"/><path fill="none" stroke="#2f2f2f" stroke-width="2" d="M339 461q-5-3-10 0l-58 34q-4 2 0 6l119 68q4 3 10 0l58-34q5-3 0-5z" class="svgStroke colorStroke2f2f2f-730 selectable"/><g fill="#060606"><rect width="25" height="4" class="svgShape color060606-732 selectable" rx="2" transform="matrix(-.86603 .5 0 1 736 531)"/><rect width="25" height="4" class="svgShape color060606-733 selectable" rx="2" transform="matrix(-.86603 .5 0 1 711 545)"/><path d="M762 241c0-10-7-24-16-29L395 10q-15-7-17 9v253c0 11 8 24 17 29l351 203q15 7 16-10z" class="svgShape color060606-734 selectable"/></g><use xlink:href="#q" fill="#b0f127" class="svgShape colorb0f127-736 selectable"/><use xlink:href="#q" fill="#c4f441" class="svgShape colorb0f127-737 selectable"/><g stroke="#060606" stroke-linejoin="round" stroke-width="2"><rect width="35" height="115" fill="#060606" class="svgShape color060606-739 svgStroke colorStroke060606-739 selectable" rx="1" transform="matrix(-.86603 .5 0 1 390 141)"/><rect width="35" height="115" fill="#e7e7e7" class="svgShape colore7e7e7-740 svgStroke colorStroke060606-740 selectable" rx="1" transform="matrix(-.86603 -.5 0 1 360 159)"/><rect width="35" height="35" fill="#fff" class="svgShape colorffffff-741 svgStroke colorStroke060606-741 selectable" rx="1" transform="matrix(-.86603 -.5 -.86603 .5 390 141)"/><rect width="35" height="80" fill="#060606" class="svgShape color060606-742 svgStroke colorStroke060606-742 selectable" rx="1" transform="matrix(-.86603 .5 0 1 435 201)"/><rect width="35" height="81" fill="#e7e7e7" class="svgShape colore7e7e7-743 svgStroke colorStroke060606-743 selectable" rx="1" transform="matrix(-.86603 -.5 0 1 405 219)"/><rect width="35" height="35" fill="#fff" class="svgShape colorffffff-744 svgStroke colorStroke060606-744 selectable" rx="1" transform="matrix(-.86603 -.5 -.86603 .5 435 201)"/><rect width="35" height="58" fill="#060606" class="svgShape color060606-745 svgStroke colorStroke060606-745 selectable" rx="1" transform="matrix(-.86603 .5 0 1 479 251)"/><rect width="35" height="58" fill="#e7e7e7" class="svgShape colore7e7e7-746 svgStroke colorStroke060606-746 selectable" rx="1" transform="matrix(-.86603 -.5 0 1 449 268)"/><rect width="35" height="35" fill="#fff" class="svgShape colorffffff-747 svgStroke colorStroke060606-747 selectable" rx="1" transform="matrix(-.86603 -.5 -.86603 .5 479 251)"/><rect width="35" height="146" fill="#060606" class="svgShape color060606-748 svgStroke colorStroke060606-748 selectable" rx="1" transform="matrix(-.86603 .5 0 1 525 190)"/><rect width="35" height="146" fill="#e7e7e7" class="svgShape colore7e7e7-749 svgStroke colorStroke060606-749 selectable" rx="1" transform="matrix(-.86603 -.5 0 1 495 207)"/><rect width="35" height="35" fill="#fff" class="svgShape colorffffff-750 svgStroke colorStroke060606-750 selectable" rx="1" transform="matrix(-.86603 -.5 -.86603 .5 525 190)"/><rect width="35" height="115" fill="#060606" class="svgShape color060606-751 svgStroke colorStroke060606-751 selectable" rx="1" transform="matrix(-.86603 .5 0 1 570 247)"/><rect width="35" height="115" fill="#e7e7e7" class="svgShape colore7e7e7-752 svgStroke colorStroke060606-752 selectable" rx="1" transform="matrix(-.86603 -.5 0 1 540 264)"/><rect width="35" height="35" fill="#fff" class="svgShape colorffffff-753 svgStroke colorStroke060606-753 selectable" rx="1" transform="matrix(-.86603 -.5 -.86603 .5 570 247)"/><rect width="35" height="58" fill="#060606" class="svgShape color060606-754 svgStroke colorStroke060606-754 selectable" rx="1" transform="matrix(-.86603 .5 0 1 615 330)"/><rect width="35" height="58" fill="#e7e7e7" class="svgShape colore7e7e7-755 svgStroke colorStroke060606-755 selectable" rx="1" transform="matrix(-.86603 -.5 0 1 585 347)"/><rect width="35" height="35" fill="#fff" class="svgShape colorffffff-756 svgStroke colorStroke060606-756 selectable" rx="1" transform="matrix(-.86603 -.5 -.86603 .5 615 330)"/><rect width="35" height="184" fill="#060606" class="svgShape color060606-757 svgStroke colorStroke060606-757 selectable" rx="1" transform="matrix(-.86603 .5 0 1 661 230)"/><rect width="35" height="184" fill="#c4f441" class="svgShape colorb0f127-758 svgStroke colorStroke060606-758 selectable" rx="1" transform="matrix(-.86603 -.5 0 1 631 247)"/><rect width="35" height="35" fill="#71a407" class="svgShape color71a407-759 svgStroke colorStroke060606-759 selectable" rx="1" transform="matrix(-.86603 -.5 -.86603 .5 661 230)"/><rect width="35" height="46" fill="#060606" class="svgShape color060606-760 svgStroke colorStroke060606-760 selectable" rx="1" transform="matrix(-.86603 .5 0 1 706 394)"/><rect width="35" height="46" fill="#e7e7e7" class="svgShape colore7e7e7-761 svgStroke colorStroke060606-761 selectable" rx="1" transform="matrix(-.86603 -.5 0 1 676 412)"/><rect width="35" height="35" fill="#fff" class="svgShape colorffffff-762 svgStroke colorStroke060606-762 selectable" rx="1" transform="matrix(-.86603 -.5 -.86603 .5 706 394)"/></g><path fill="#b0f127" fill-rule="evenodd" d="M719 622q-5-9-17-16c-26-15-69-15-95 0q-12 7-17 16h-3v11q0 15 20 28c26 15 69 15 95 0q20-12 20-28v-11z" class="svgShape colorb0f127-763 selectable"/><use xlink:href="#r" fill="#060606" class="svgShape color060606-764 selectable"/><mask id="s" width="139" height="81" x="585" y="591" maskUnits="userSpaceOnUse"><path fill="#71a407" fill-rule="evenodd" d="M719 620q-5-9-17-16c-26-15-69-15-95 0q-12 7-17 16h-3v11q0 16 20 28c26 15 69 15 95 0q20-13 20-28v-11z" class="svgShape color71a407-766 selectable"/><path fill="#060606" d="M702 604zm17 16zm-112-16zm-17 16zm-3 0v-1h-1v1zm0 11h-1v1zm0 0zm20 28zm95 0zm20-28zm0 0zh1v-1zm0-11h1v-1h-1zm-20-15q12 6 16 15l2-1q-6-9-17-16zm-95 0q20-12 47-12c27 0 35 4 48 12l1-2q-21-11-49-11c-28 0-34 3-48 11zm-16 15q4-9 16-15l-1-2q-11 7-17 16zm-4 0h3v-1h-3zm1 11v-11h-2v11zm-1-1v2zm20 28q-20-11-19-27h-2q0 16 20 29zm95 0q-20 12-48 12c-28 0-34-4-47-12l-1 2q22 11 48 11c26 0 35-4 49-11zm19-27q1 16-19 27l1 2q20-13 20-29zm1-1v2zm-1-10v11h2v-11zm-2 0h3v-1h-3z" class="svgShape color060606-767 selectable"/></mask><g mask="url(#s)"><path fill="#b0f127" d="M655 620h-68v55h68z" class="svgShape colorb0f127-769 selectable"/></g><use xlink:href="#r" fill="#060606" class="svgShape color060606-770 selectable"/><circle r="55" fill="#fff" stroke="#060606" stroke-width="2" class="svgShape colorffffff-771 svgStroke colorStroke060606-771 selectable" transform="matrix(.86603 -.5 .86603 .5 654 617)"/><path fill="#b0f127" fill-rule="evenodd" d="M787 666q-5-9-17-16c-26-15-69-15-96 0q-12 7-16 16h-3v11q-1 16 19 28c27 16 70 16 96 0q20-12 20-28v-11z" class="svgShape colorb0f127-772 selectable"/><use xlink:href="#t" fill="#060606" class="svgShape color060606-773 selectable"/><mask id="u" width="138" height="81" x="653" y="635" maskUnits="userSpaceOnUse"><path fill="#71a407" fill-rule="evenodd" d="M787 664q-5-9-17-16c-26-15-69-15-96 0q-12 7-16 16h-3v11q-1 15 19 28c27 15 70 15 96 0q20-12 20-28v-11z" class="svgShape color71a407-775 selectable"/><path fill="#060606" d="M770 648zm17 16h-1zm-113-16zm-16 16zm-3 0v-1h-1v1zm0 11h-1v1zm0 0zm19 28zm96 0zm20-28zh-1v1zm0 0zm0-11zv-1h-1zm-20-15q11 7 16 15l1-1q-5-9-17-16zm-95 0q21-12 47-12c26 0 35 4 48 12v-2q-20-11-48-11c-28 0-35 4-48 11zm-17 15q5-8 17-15l-1-2q-12 7-17 16zm-3 1h3v-2h-3zm0 10v-11h-1v11zm0-1v2zm20 28q-20-11-20-27h-1q-1 17 20 29zm95 0q-21 12-48 12c-27 0-34-4-47-12l-1 2q21 12 48 11c27-1 35-3 48-11zm19-27q0 16-19 27v2q21-12 21-29zm1-1v2zm-1-10v11h2v-11zm-2 1h3v-2h-3z" class="svgShape color060606-776 selectable"/></mask><g mask="url(#u)"><path fill="#b0f127" d="M722 664h-67v55h67z" class="svgShape colorb0f127-778 selectable"/></g><use xlink:href="#t" fill="#060606" class="svgShape color060606-779 selectable"/><circle r="55" fill="#b0f127" stroke="#060606" stroke-width="2" class="svgShape colorb0f127-780 svgStroke colorStroke060606-780 selectable" transform="matrix(.86603 -.5 .86603 .5 722 662)"/><path fill="#060606" d="M737 645q-8-4-20 0l-5-6-6 2 5 5-4 2-6-5-5 2 5 5-3 1-8 3 4 4 4-2h4l7 7v-1 1l9 8-1 2-4 1 3 5 7-3 4-1 6 5 5-2-5-5 4-2 6 6 6-2-6-6q15-5 10-12-6-7-15-4 3-4-1-8m4 15c4 4-8 8-12 9l-8-7c4-2 15-6 20-2m-13-9c4 3-7 6-10 7l-7-6c3-1 13-5 17-1" class="svgShape color060606-781 selectable"/><path fill="#c4f441" fill-rule="evenodd" d="M787 649q-5-8-17-15c-26-16-69-16-96 0q-12 7-16 15h-3v12q-1 16 19 28c27 15 70 15 96 0q20-12 20-28v-12z" class="svgShape colorb0f127-782 selectable"/><use xlink:href="#v" fill="#060606" class="svgShape color060606-783 selectable"/><mask id="w" width="138" height="80" x="653" y="619" maskUnits="userSpaceOnUse"><path fill="#71a407" fill-rule="evenodd" d="M787 647q-5-9-17-16c-26-15-69-15-96 0q-12 7-16 16h-3v11q-1 17 19 29c27 15 70 15 96 0q20-12 20-29v-11z" class="svgShape color71a407-785 selectable"/><path fill="#060606" d="m787 647-1 1h1zm-129 0v1zm-3 0zh-1v1zm0 11h-1v1h1zm0 0zm135 0h-1v1zm0 0v1h1zm0-11zm-20-15q11 7 16 16l1-1q-5-9-17-16zm-95 0q20-11 47-11c27 0 35 4 48 11v-1q-20-12-48-12c-28 0-35 4-48 12zm-17 16q6-9 17-16l-1-1q-12 7-17 16zm-3 0h3v-2h-3zm0 10v-11h-1v11zm0 0v1zm20 28q-20-13-20-27l-1-1q-1 18 20 29zm95 0q-21 11-48 11c-27 0-34-4-47-11l-1 1q21 12 48 12c27 0 35-4 48-12zm19-27q0 14-19 27v1q21-11 21-29zm1-1v1zm-1-11v11h2v-11zm-2 1h3v-2h-3z" class="svgShape color060606-786 selectable"/></mask><g mask="url(#w)"><path fill="#b0f127" d="M722 647h-67v55h67z" class="svgShape colorb0f127-788 selectable"/></g><use xlink:href="#v" fill="#060606" class="svgShape color060606-789 selectable"/><circle r="55" fill="#b0f127" stroke="#060606" stroke-width="2" class="svgShape colorb0f127-790 svgStroke colorStroke060606-790 selectable" transform="matrix(.86603 -.5 .86603 .5 722 645)"/><path fill="#060606" d="M737 629q-8-5-20-1l-5-5-6 2 5 5-4 1-6-5-5 2 5 6-3 1-8 3 4 3 4-1h4l7 6 9 9-1 1-4 2 3 4 7-2 4-2 6 6 5-2-5-6 4-1 6 5 6-2-6-5q15-6 10-13-6-6-15-4 3-4-1-7m4 14c4 4-8 8-12 9l-8-7c4-1 15-6 20-2m-13-9c4 4-7 7-10 8l-7-7c3-1 13-5 17-1" class="svgShape color060606-791 selectable"/><path fill="#b0f127" fill-rule="evenodd" d="M787 634q-5-9-17-16c-26-15-69-15-96 0q-12 6-16 16h-3v11q-1 15 19 28c27 15 70 15 96 0q20-13 20-28v-11z" class="svgShape colorb0f127-792 selectable"/><use xlink:href="#x" fill="#060606" class="svgShape color060606-793 selectable"/><mask id="y" width="138" height="81" x="653" y="603" maskUnits="userSpaceOnUse"><path fill="#71a407" fill-rule="evenodd" d="M787 631q-6-8-17-15c-26-16-69-16-96 0q-12 7-16 15h-3v12q-1 16 19 28c27 15 70 15 96 0q20-12 20-28v-12z" class="svgShape color71a407-795 selectable"/><path fill="#060606" d="m787 631-1 1h1zm-113-15zm-16 15v1zm-3 0h-1zm0 12h-1v1zm0 0v-1zm19 28zm96 0zm20-28v-1h-1v1zm0 0zm0-12zm-20-15q11 7 16 16l1-1q-5-9-17-16zm-95 0q21-11 47-11c26 0 35 4 48 11v-1q-20-12-48-12c-28 0-35 4-48 12zm-17 16q5-9 17-16l-1-1q-12 7-17 16zm-3 0h3v-1h-3zm0 11v-12h-1v12zm0-1v2zm20 28q-20-13-20-27h-1q-1 16 20 29zm95 0q-21 12-48 11c-27-1-34-3-47-11l-1 2q21 11 48 11c27 0 35-4 48-11zm19-27q0 14-19 27v2q21-13 21-29zm1-1v2zm-1-11v12h2v-12zm-2 1h3v-1h-3z" class="svgShape color060606-796 selectable"/></mask><g mask="url(#y)"><path fill="#c4f441" d="M722 631h-67v56h67z" class="svgShape colorb0f127-798 selectable"/></g><use xlink:href="#x" fill="#060606" class="svgShape color060606-799 selectable"/><circle r="55" fill="#fff" stroke="#060606" stroke-width="2" class="svgShape colorffffff-800 svgStroke colorStroke060606-800 selectable" transform="matrix(.86603 -.5 .86603 .5 722 629)"/><path fill="#060606" d="M737 613q-8-5-20-1l-5-5-6 2 5 5-4 2-6-6-5 2 5 6-3 1-8 3 4 3 4-1h4l7 6 9 9-1 2-4 1 3 4 7-2 4-2 6 6 5-2-5-5 4-2 6 5 6-2-6-5q15-5 10-13-6-6-15-4 3-3-1-7m4 14c4 4-8 8-12 10l-8-8c4-1 15-6 20-2m-13-9c4 4-7 7-10 8l-7-7c3-1 13-5 17-1" class="svgShape color060606-801 selectable"/><rect width="223" height="149" x="1" fill="#fff" stroke="#060606" stroke-width="2" class="svgShape colorffffff-802 svgStroke colorStroke060606-802 selectable" rx="16" transform="matrix(.86603 -.5 .86603 .5 0 449)"/><mask id="z" width="309" height="178" x="8" y="341" maskUnits="userSpaceOnUse"><rect width="223" height="149" x="1" fill="#141414" stroke="#060606" stroke-width="2" class="svgShape color141414-804 svgStroke colorStroke060606-804 selectable" rx="16" transform="matrix(.86603 -.5 .86603 .5 0 449)"/></mask><g mask="url(#z)"><path fill="silver" d="M110 419h121v118H110z" class="svgShape colorc0c0c0-806 selectable"/></g><rect width="223" height="149" x="1" fill="none" stroke="#060606" stroke-width="2" class="svgStroke colorStroke060606-807 selectable" rx="16" transform="matrix(.86603 -.5 .86603 .5 0 449)"/><rect width="51" height="13" fill="#060606" class="svgShape color060606-808 selectable" rx="6" transform="matrix(.86603 -.5 .86603 .5 24 447)"/><rect width="223" height="133" x="1" y="1" fill="#c4f441" stroke="#060606" stroke-width="2" class="svgShape colorb0f127-809 svgStroke colorStroke060606-809 selectable" rx="16" transform="matrix(.97237 -.23345 .40929 .9124 104 413)"/><mask id="A" width="263" height="170" x="109" y="363" maskUnits="userSpaceOnUse"><rect width="223" height="133" x="1" y="1" fill="#b0f127" stroke="#060606" stroke-width="2" class="svgShape colorb0f127-811 svgStroke colorStroke060606-811 selectable" rx="16" transform="matrix(.97237 -.23345 .40929 .9124 104 413)"/></mask><g mask="url(#A)"><path fill="#547907" d="m391 486-60-133-177 190z" class="svgShape color547907-813 selectable"/></g><g stroke="#060606" stroke-width="2"><rect width="223" height="133" x="1" y="1" fill="none" class="svgStroke colorStroke060606-815 selectable" rx="16" transform="matrix(.97237 -.23345 .40929 .9124 104 413)"/><path fill="#060606" d="M1 1h223v42H1z" class="svgShape color060606-816 svgStroke colorStroke060606-816 selectable" transform="matrix(.97237 -.23345 .40929 .9124 128 468)"/></g><path fill="#060606" d="M408 64v-9l3 2 1 1 1 1v3h-1v-1l1 2v3h-2zm1-1 2 1h1q1 0 0 0v-2h-1l-2-1zm0-4 2 1h1q1 0 0 0l-1-1v-1l-2-1zm7 10-1-1-1-1v-2l1-1h1l1 1h1v-1h-1l-1-1v1l-2-1 1-1h2l1 1 1 2v5h-1v-2 1h-2m0-1h1l1-1v-1 1l-1-1h-1v2m5 3v-9l1 1v9zm4 3zv-1l-1-1 1-1h2l2 1h-1v-1l-1-1h-1l-1-1v-1h2l1 2 1 1v1l1 1v4l-2-1v-1zm1-1zv-1h1-2v-1h-1v2zm8 6v-5l-1-1h-2v1-2l1-1h1l1 1 1 1v6zm-4-3v-6l1 1v6zm9 6-2-1-1-2v-4h3l2 1 1 3-2-1v-1l-1-1h-1v3l1 1h1q0-1 0 0l2 1-1 1zm6 3-1-1-2-2v-3l2-1h1l2 2v2l1 2-2-1v-2l-1-1h-1v3l1 1h1l2 1-1 1zm-2-4zl4 2v1zm-31 21-3-4-3-4V80l3-2 3 1 4 3 2 5 1 4v7l-1 3-2 2zm0-4h2l1-1 1-1v-7l-1-2-1-2-2-2h-2l-1 2v7l1 2 1 2zm11 9v-4l4 2v4zm8 5v-4l7-3 2-1v-4l-1-1-2-2h-1l-1 1-1 1-3-2v-3l3-2 3 2 3 2 3 4 1 4-1 3-1 1-2 1-5 2v-1l9 5v4zm15 8v-3l8-3 1-1v-4l-1-1-1-2h-3v2l-4-2 1-3 2-2 4 2 3 2 2 4 1 4v3l-1 1-2 1-5 2-1-1 9 5v4zm19 12v-17h-3v-4l3-1 4 2v22zm10 5 6-14-8-5v-3l12 6v4l-7 14zm19 11v-3l-8-5v-3l6-11 4 2-6 11 4 2v-5l4 2v5l1 1v4l-1-1v3zm15 9-3-3-3-4v-14l3-2 3 1 3 2 2 3-2 2-1-2-2-1h-2l-1 2v3-1h4l3 3 2 4v7l-3 1zm0-4 1 1 1-1 1-1-1-2-1-2-1-1-1-1a1 1 0 0 0-2 1v3l2 2z" class="svgShape color060606-817 selectable"/><rect width="54" height="20" fill="#060606" class="svgShape color060606-818 selectable" rx="10" transform="matrix(.86603 .5 0 1 403 104)"/><path fill="#fff" d="M418 125v-5h-1v-1h1l1 1v6zm2 2v-1l3-1v-1q0-1 0 0v-1h-1v-1l-1 1q-1 1 0 0l-1-1 1-1h1l1 1 1 1v3h-1l-1 1v-1l2 2v1zm5 3v-2l1 1v1zm4 2zv-1l-1-1 1 1h1v1zv-1l-1-1-1-1 2-1-2-1v-1l3 2v1h-1v1l1 1v2h-2m5 3v-1l-2-1v-2l2-3 1 1-2 3 1 1v-2l1 1v1l1 1v1h-1v1zm4 2-1-1 5-3 1 1zm3 2-1-1v-2h1l1 1h1v2h-2m0-1zh-1q-1 0 0 0-1 0 0 0zm-3-4zv-2l1-1v1h1v1l1 1-1 1zm0-1zh-1q-1 0 0 0-1 0 0 0z" class="svgShape colorffffff-819 selectable"/><g stroke-linecap="square" clip-path="url(#B)"><path fill="none" stroke="#fff" d="m409 121 4-2m0 4v-5l-3-2" class="svgStroke colorStrokeffffff-821 selectable"/></g><defs><path id="e" d="M395 358v4l16-9v-4z" class="selectable"/><path id="f" d="m375 353 15 9v-4l-15-9z" class="selectable"/><path id="g" d="m444 393 16 9v-4l-16-9z" class="selectable"/><path id="h" d="m468 407 15 9v-4l-15-9z" class="selectable"/><path id="i" d="m535 438-3 1-2-1-16-9v-2l16-9 2-1 3 1 15 9v2z" class="selectable"/><path id="j" d="M627 492v4l16-9v-4z" class="selectable"/><path id="k" d="m607 487 16 9v-4l-16-9z" class="selectable"/><path id="l" d="m389 408-2 1-3-1-15-9v-3l15-8 3-1 2 1 16 8v3z" class="selectable"/><path id="m" d="m369 403 15 9v-4l-15-9z" class="selectable"/><path id="n" d="M482 462v4l16-9v-4z" class="selectable"/><path id="o" d="m462 457 15 9v-4l-15-9z" class="selectable"/><path id="p" d="M598 529h-4l-16-9v-3l16-9 2-1 2 1 16 9v3z" class="selectable"/><path id="q" d="M752 237q-1-10-9-16L395 20q-8-3-9 6v251q1 10 9 16l348 201q8 4 9-5z" class="selectable"/><path id="r" d="M702 606zm17 16zm-112-16zm-17 16zm-3 0v-1h-1v1zm0 11h-1v1zm0 0zm20 28zm95 0zm20-28zm0 0zh1v-1zm0-11h1v-1h-1zm-20-15q12 7 16 15l2-1q-6-9-17-16zm-95 0q20-12 47-12c27 0 35 4 48 12l1-2q-21-11-49-11c-28 0-34 4-48 11zm-16 15q4-8 16-15l-1-2q-11 7-17 16zm-4 1h3v-2h-3zm1 10v-11h-2v11zm-1-1v2zm20 28q-20-11-19-27h-2q0 17 20 29zm95 0q-20 12-48 12c-28 0-34-4-47-12l-1 2q22 12 48 12c26 0 35-4 49-12zm19-27q1 16-19 27l1 2q20-12 20-29zm1-1v2zm-1-10v11h2v-11zm-2 1h3v-2h-3z" class="selectable"/><path id="t" d="M770 650zm17 16h-1zm-113-16zm-16 16zm-3 0zh-1v1zm0 11h-1v1h1zm0 0zm19 28v1zm96 0v1zm20-28zh-1v1zm0 0v1h1zm0-11zm-20-15q11 7 16 15h1q-5-9-17-17zm-95 0q21-11 47-11c26 0 35 3 48 11v-2q-20-11-48-11c-28 0-35 4-48 11zm-17 15q5-8 17-15l-1-2q-12 8-17 17zm-3 1h3v-2h-3zm0 10v-11h-1v11zm0-1v2zm20 29q-20-12-20-28h-1q-1 17 20 29zm95 0q-21 11-48 11c-27 0-34-4-47-11l-1 1q21 12 48 12c27 0 35-4 48-12zm19-28q0 15-19 28v1q21-12 21-29zm1-1v2zm-1-10v11h2v-11zm-2 1h3v-2h-3z" class="selectable"/><path id="v" d="m787 649-1 1h1zm-113-15zm-16 15v1zm-3 0h-1zm0 12h-1v1zm0 0v-1zm19 28zm96 0zm20-28v-1h-1v1zm0 0zm0-12zm-20-15q11 7 16 16l1-1q-5-9-17-16zm-95 0q21-11 47-11c26 0 35 4 48 11v-1q-20-12-48-12c-28 0-35 4-48 12zm-17 16q5-9 17-16l-1-1q-12 7-17 16zm-3 0h3v-1h-3zm0 11v-12h-1v12zm0-1v2zm20 28q-20-13-20-27h-1q-1 16 20 29zm95 0q-21 12-48 11c-27-1-34-3-47-11l-1 2q21 11 48 11c27 0 35-4 48-11zm19-27q0 14-19 27v2q21-13 21-29zm1-1v2zm-1-11v12h2v-12zm-2 1h3v-1h-3z" class="selectable"/><path id="x" d="M770 618zm17 16h-1zm-113-16zm-19 16v-1h-1v1zm0 11h-1v1zm0 0zm19 28zm96 0zm20-28zh-1v1zm0 0zm0-11zv-1h-1zm-20-15q11 6 16 15l1-1q-5-9-17-16zm-95 0q21-12 47-12c26 0 35 4 48 12v-2q-20-11-48-11c-28 0-35 3-48 11zm-17 15q6-9 17-15l-1-2q-12 7-17 16zm-3 0h3v-1h-3zm0 11v-11h-1v11zm0-1v2zm20 28q-20-11-20-27h-1q-1 16 20 29zm95 0q-21 12-48 12c-27 0-34-4-47-12l-1 2q21 12 48 11c27-1 35-3 48-11zm19-27q0 16-19 27v2q21-13 21-29zm1-1v2zm-1-10v11h2v-11zm-2 0h3v-1h-3z" class="selectable"/><clipPath id="B"><path fill="#fff" d="m408 114 6 4v7l-6-4z" class="svgShape colorffffff-841 selectable"/></clipPath></defs></svg></svg>